Upgrade_CJK_Try-Bold.ufo
<glyph name="ampersand" format="2">
  <advance height="1000" width="764"/>
  <unicode hex="0026"/>
  <outline>
    <contour>
      <point x="285.0" y="-16" type="curve" smooth="yes"/>
      <point x="371.0" y="-16"/>
      <point x="431.0" y="10"/>
      <point x="473.0" y="50" type="curve"/>
      <point x="517.0" y="0" type="line"/>
      <point x="752.0" y="0" type="line"/>
      <point x="596.0" y="178" type="line"/>
      <point x="635.0" y="245"/>
      <point x="653.0" y="335"/>
      <point x="653.0" y="442" type="curve"/>
      <point x="490.0" y="442" type="line"/>
      <point x="490.0" y="390"/>
      <point x="486.0" y="348"/>
      <point x="477.0" y="313" type="curve"/>
      <point x="399.0" y="401" type="line" smooth="yes"/>
      <point x="360.0" y="446"/>
      <point x="341.0" y="479"/>
      <point x="341.0" y="517" type="curve" smooth="yes"/>
      <point x="341.0" y="561"/>
      <point x="373.0" y="594"/>
      <point x="426.0" y="594" type="curve" smooth="yes"/>
      <point x="473.0" y="594"/>
      <point x="516.0" y="582"/>
      <point x="560.0" y="559" type="curve"/>
      <point x="560.0" y="725" type="line"/>
      <point x="509.0" y="747"/>
      <point x="450.0" y="756"/>
      <point x="390.0" y="756" type="curve" smooth="yes"/>
      <point x="241.0" y="756"/>
      <point x="148.0" y="666"/>
      <point x="148.0" y="546" type="curve" smooth="yes"/>
      <point x="148.0" y="502"/>
      <point x="155.0" y="462"/>
      <point x="171.0" y="424" type="curve"/>
      <point x="78.0" y="371"/>
      <point x="36.0" y="291"/>
      <point x="36.0" y="206" type="curve" smooth="yes"/>
      <point x="36.0" y="78"/>
      <point x="127.0" y="-16"/>
    </contour>
    <contour>
      <point x="216.0" y="228" type="curve" smooth="yes"/>
      <point x="216.0" y="262"/>
      <point x="228.0" y="286"/>
      <point x="254.0" y="306" type="curve"/>
      <point x="371.0" y="170" type="line"/>
      <point x="353.0" y="153"/>
      <point x="331.0" y="144"/>
      <point x="305.0" y="144" type="curve" smooth="yes"/>
      <point x="250.0" y="144"/>
      <point x="216.0" y="178"/>
    </contour>
  </outline>
</glyph>
<glyph name="parenleft" format="2">
  <advance height="1000" width="463"/>
  <unicode hex="0028"/>
  <outline>
    <contour>
      <point x="233.0" y="-191" type="curve"/>
      <point x="451.0" y="-191" type="line"/>
      <point x="324.0" y="-56"/>
      <point x="249.0" y="117"/>
      <point x="249.0" y="276" type="curve" smooth="yes"/>
      <point x="249.0" y="433"/>
      <point x="324.0" y="606"/>
      <point x="451.0" y="740" type="curve"/>
      <point x="233.0" y="740" type="line"/>
      <point x="121.0" y="618"/>
      <point x="56.0" y="444"/>
      <point x="56.0" y="276" type="curve" smooth="yes"/>
      <point x="56.0" y="107"/>
      <point x="121.0" y="-67"/>
    </contour>
  </outline>
</glyph>
<glyph name="parenright" format="2">
  <advance height="1000" width="463"/>
  <unicode hex="0029"/>
  <outline>
    <contour>
      <point x="12.0" y="-189.0" type="curve"/>
      <point x="230.0" y="-189.0" type="line"/>
      <point x="342.0" y="-65"/>
      <point x="407.0" y="109"/>
      <point x="407.0" y="276" type="curve" smooth="yes"/>
      <point x="407.0" y="444"/>
      <point x="342.0" y="617"/>
      <point x="230.0" y="740" type="curve"/>
      <point x="12.0" y="740" type="line"/>
      <point x="139.0" y="606"/>
      <point x="213.0" y="434"/>
      <point x="213.0" y="276" type="curve" smooth="yes"/>
      <point x="213.0" y="118"/>
      <point x="139.0" y="-54"/>
    </contour>
  </outline>
</glyph>
<glyph name="slash" format="2">
  <advance height="1000" width="575"/>
  <unicode hex="002F"/>
  <outline>
    <contour>
      <point x="24.0" y="0.0" type="line"/>
      <point x="201.0" y="0.0" type="line"/>
      <point x="551.0" y="740" type="line"/>
      <point x="374.0" y="740" type="line"/>
    </contour>
  </outline>
</glyph>
<glyph name="zero" format="2">
  <advance height="1000" width="708"/>
  <unicode hex="0030"/>
  <outline>
    <contour>
      <point x="354.0" y="-16.0" type="curve" smooth="yes"/>
      <point x="562.0" y="-16.0"/>
      <point x="664.0" y="131"/>
      <point x="664.0" y="371" type="curve" smooth="yes"/>
      <point x="664.0" y="611"/>
      <point x="562.0" y="756"/>
      <point x="354.0" y="756" type="curve" smooth="yes"/>
      <point x="147.0" y="756"/>
      <point x="44.0" y="609"/>
      <point x="44.0" y="369" type="curve" smooth="yes"/>
      <point x="44.0" y="131"/>
      <point x="147.0" y="-16.0"/>
    </contour>
    <contour>
      <point x="354.0" y="163" type="curve" smooth="yes"/>
      <point x="280.0" y="163"/>
      <point x="248.0" y="232"/>
      <point x="248.0" y="371" type="curve" smooth="yes"/>
      <point x="248.0" y="509"/>
      <point x="280.0" y="578"/>
      <point x="354.0" y="578" type="curve" smooth="yes"/>
      <point x="428.0" y="578"/>
      <point x="460.0" y="509"/>
      <point x="460.0" y="369" type="curve" smooth="yes"/>
      <point x="460.0" y="231"/>
      <point x="428.0" y="163"/>
    </contour>
  </outline>
</glyph>
<glyph name="four" format="2">
  <advance height="1000" width="683"/>
  <unicode hex="0034"/>
  <outline>
    <contour>
      <point x="360.0" y="0.0" type="line"/>
      <point x="550.0" y="0.0" type="line"/>
      <point x="550.0" y="152.0" type="line"/>
      <point x="639.0" y="152.0" type="line"/>
      <point x="639.0" y="319.0" type="line"/>
      <point x="550.0" y="319.0" type="line"/>
      <point x="550.0" y="740.0" type="line"/>
      <point x="280.0" y="740.0" type="line"/>
      <point x="44.0" y="290.0" type="line"/>
      <point x="44.0" y="153.0" type="line"/>
      <point x="360.0" y="153.0" type="line"/>
    </contour>
    <contour>
      <point x="233.0" y="319.0" type="line"/>
      <point x="360.0" y="557.0" type="line"/>
      <point x="360.0" y="319.0" type="line"/>
    </contour>
  </outline>
</glyph>
<glyph name="five" format="2">
  <advance height="1000" width="611"/>
  <unicode hex="0035"/>
  <outline>
    <contour>
      <point x="279.0" y="-12.0" type="curve" smooth="yes"/>
      <point x="460.0" y="-12.0"/>
      <point x="563.0" y="88.0"/>
      <point x="563.0" y="234.0" type="curve" smooth="yes"/>
      <point x="563.0" y="384.0"/>
      <point x="462.0" y="467.0"/>
      <point x="295.0" y="466.0" type="curve" smooth="yes"/>
      <point x="277.0" y="466.0"/>
      <point x="251.0" y="464.0"/>
      <point x="229.0" y="460.0" type="curve"/>
      <point x="235.0" y="553.0" type="line"/>
      <point x="539.0" y="553.0" type="line"/>
      <point x="539.0" y="740.0" type="line"/>
      <point x="81.0" y="740.0" type="line"/>
      <point x="53.0" y="278.0" type="line"/>
      <point x="119.0" y="293.0"/>
      <point x="190.0" y="301.0"/>
      <point x="258.0" y="301.0" type="curve" smooth="yes"/>
      <point x="323.0" y="301.0"/>
      <point x="361.0" y="275.0"/>
      <point x="361.0" y="230.0" type="curve" smooth="yes"/>
      <point x="361.0" y="185.0"/>
      <point x="325.0" y="160.0"/>
      <point x="266.0" y="160.0" type="curve" smooth="yes"/>
      <point x="195.0" y="160.0"/>
      <point x="116.0" y="174.0"/>
      <point x="52.0" y="207.0" type="curve"/>
      <point x="52.0" y="33.0" type="line"/>
      <point x="115.0" y="4.0"/>
      <point x="190.0" y="-12.0"/>
    </contour>
  </outline>
</glyph>
<glyph name="semicolon" format="2">
  <advance height="1000" width="300"/>
  <unicode hex="003B"/>
  <outline>
    <contour>
      <point x="143.0" y="-189.0" type="line"/>
      <point x="192.0" y="-142.0"/>
      <point x="244.0" y="-60.0"/>
      <point x="244.0" y="75.0" type="curve" smooth="yes"/>
      <point x="244.0" y="180.0" type="line"/>
      <point x="64.0" y="180.0" type="line"/>
      <point x="64.0" y="74.0" type="line" smooth="yes"/>
      <point x="64.0" y="-29.0"/>
      <point x="44.0" y="-80.0"/>
      <point x="8.0" y="-152.0" type="curve"/>
    </contour>
    <contour>
      <point x="64.0" y="332.0" type="line"/>
      <point x="244.0" y="332.0" type="line"/>
      <point x="244.0" y="512.0" type="line"/>
      <point x="64.0" y="512.0" type="line"/>
    </contour>
  </outline>
</glyph>
<glyph name="A" format="2">
  <advance height="1000" width="817"/>
  <unicode hex="0041"/>
  <outline>
    <contour>
      <point x="584" y="0" type="line"/>
      <point x="801" y="0" type="line"/>
      <point x="507" y="740" type="line"/>
      <point x="312" y="740" type="line"/>
      <point x="16" y="0" type="line"/>
      <point x="210" y="0" type="line"/>
      <point x="397" y="513" type="line"/>
    </contour>
    <contour>
      <point x="166" y="131" type="line"/>
      <point x="626" y="131" type="line"/>
      <point x="626" y="289" type="line"/>
      <point x="166" y="289" type="line"/>
    </contour>
  </outline>
</glyph>
<glyph name="B" format="2">
  <advance height="1000" width="655"/>
  <unicode hex="0042"/>
  <outline>
    <contour>
      <point x="64" y="0" type="line"/>
      <point x="354" y="0" type="line" smooth="yes"/>
      <point x="523" y="0"/>
      <point x="615" y="74"/>
      <point x="615" y="205" type="curve" smooth="yes"/>
      <point x="615" y="296"/>
      <point x="561" y="353"/>
      <point x="464" y="376" type="curve"/>
      <point x="545" y="404"/>
      <point x="591" y="464"/>
      <point x="591" y="553" type="curve" smooth="yes"/>
      <point x="591" y="674"/>
      <point x="501" y="740"/>
      <point x="337" y="740" type="curve" smooth="yes"/>
      <point x="64" y="740" type="line"/>
    </contour>
    <contour>
      <point x="262" y="441" type="line"/>
      <point x="262" y="593" type="line"/>
      <point x="313" y="593" type="line" smooth="yes"/>
      <point x="361" y="593"/>
      <point x="394" y="566"/>
      <point x="394" y="517" type="curve" smooth="yes"/>
      <point x="394" y="470"/>
      <point x="361" y="441"/>
      <point x="313" y="441" type="curve" smooth="yes"/>
    </contour>
    <contour>
      <point x="262" y="154" type="line"/>
      <point x="262" y="308" type="line"/>
      <point x="331" y="308" type="line" smooth="yes"/>
      <point x="381" y="308"/>
      <point x="416" y="280"/>
      <point x="416" y="232" type="curve" smooth="yes"/>
      <point x="416" y="183"/>
      <point x="381" y="154"/>
      <point x="331" y="154" type="curve" smooth="yes"/>
    </contour>
  </outline>
</glyph>
<glyph name="E" format="2">
  <advance height="1000" width="597"/>
  <unicode hex="0045"/>
  <outline>
    <contour>
      <point x="64" y="0" type="line"/>
      <point x="541" y="0" type="line"/>
      <point x="541" y="178" type="line"/>
      <point x="264" y="178" type="line"/>
      <point x="264" y="294" type="line"/>
      <point x="516" y="294" type="line"/>
      <point x="516" y="452" type="line"/>
      <point x="264" y="452" type="line"/>
      <point x="264" y="562" type="line"/>
      <point x="531" y="562" type="line"/>
      <point x="531" y="740" type="line"/>
      <point x="64" y="740" type="line"/>
    </contour>
  </outline>
</glyph>
<glyph name="G" format="2">
  <advance height="1000" width="794"/>
  <unicode hex="0047"/>
  <outline>
    <contour>
      <point x="447.0" y="-16.0" type="curve" smooth="yes"/>
      <point x="545.0" y="-16.0"/>
      <point x="649.0" y="2.0"/>
      <point x="738.0" y="37.0" type="curve"/>
      <point x="738.0" y="440.0" type="line"/>
      <point x="414.0" y="440.0" type="line"/>
      <point x="414.0" y="270.0" type="line"/>
      <point x="538.0" y="270.0" type="line"/>
      <point x="538.0" y="174.0" type="line"/>
      <point x="512.0" y="165.0"/>
      <point x="482.0" y="159.0"/>
      <point x="443.0" y="159.0" type="curve" smooth="yes"/>
      <point x="322.0" y="159.0"/>
      <point x="248.0" y="245.0"/>
      <point x="248.0" y="373.0" type="curve" smooth="yes"/>
      <point x="248.0" y="495.0"/>
      <point x="329.0" y="578.0"/>
      <point x="468.0" y="578.0" type="curve" smooth="yes"/>
      <point x="547.0" y="578.0"/>
      <point x="625.0" y="558.0"/>
      <point x="691.0" y="528.0" type="curve"/>
      <point x="691.0" y="715.0" type="line"/>
      <point x="615.0" y="742.0"/>
      <point x="531.0" y="756.0"/>
      <point x="456.0" y="756.0" type="curve" smooth="yes"/>
      <point x="212.0" y="756.0"/>
      <point x="44.0" y="625.0"/>
      <point x="44.0" y="370.0" type="curve" smooth="yes"/>
      <point x="44.0" y="115.0"/>
      <point x="209.0" y="-16.0"/>
    </contour>
  </outline>
</glyph>
<glyph name="M" format="2">
  <advance height="1000" width="992"/>
  <unicode hex="004D"/>
  <outline>
    <contour>
      <point x="64" y="0" type="line"/>
      <point x="244" y="0" type="line"/>
      <point x="244" y="544" type="line"/>
      <point x="413" y="99" type="line"/>
      <point x="559" y="99" type="line"/>
      <point x="728" y="544" type="line"/>
      <point x="728" y="0" type="line"/>
      <point x="928" y="0" type="line"/>
      <point x="928" y="740" type="line"/>
      <point x="637" y="740" type="line"/>
      <point x="501" y="369" type="line"/>
      <point x="365" y="740" type="line"/>
      <point x="64" y="740" type="line"/>
    </contour>
  </outline>
</glyph>
<glyph name="O" format="2">
  <advance height="1000" width="111"/>
  <unicode hex="004F"/>
  <outline>
    <contour>
      <point x="441.0" y="-16.0" type="curve" smooth="yes"/>
      <point x="684.0" y="-16.0"/>
      <point x="838.0" y="133.0"/>
      <point x="838.0" y="371.0" type="curve" smooth="yes"/>
      <point x="838.0" y="611.0"/>
      <point x="679.0" y="756.0"/>
      <point x="441.0" y="756.0" type="curve" smooth="yes"/>
      <point x="203.0" y="756.0"/>
      <point x="44.0" y="606.0"/>
      <point x="44.0" y="371.0" type="curve" smooth="yes"/>
      <point x="44.0" y="137.0"/>
      <point x="198.0" y="-16.0"/>
    </contour>
    <contour>
      <point x="441.0" y="162.0" type="curve" smooth="yes"/>
      <point x="323.0" y="162.0"/>
      <point x="248.0" y="242.0"/>
      <point x="248.0" y="371.0" type="curve" smooth="yes"/>
      <point x="248.0" y="502.0"/>
      <point x="323.0" y="578.0"/>
      <point x="441.0" y="578.0" type="curve" smooth="yes"/>
      <point x="559.0" y="578.0"/>
      <point x="634.0" y="502.0"/>
      <point x="634.0" y="371.0" type="curve" smooth="yes"/>
      <point x="634.0" y="242.0"/>
      <point x="559.0" y="162.0"/>
    </contour>
  </outline>
</glyph>
<glyph name="P" format="2">
  <advance height="1000" width="647"/>
  <unicode hex="0050"/>
  <outline>
    <contour>
      <point x="64" y="0" type="line"/>
      <point x="264" y="0" type="line"/>
      <point x="264" y="198" type="line"/>
      <point x="315" y="198" type="line" smooth="yes"/>
      <point x="495.0" y="198.0"/>
      <point x="615" y="307"/>
      <point x="615" y="470" type="curve" smooth="yes"/>
      <point x="615" y="632"/>
      <point x="495.0" y="740.0"/>
      <point x="316" y="740" type="curve" smooth="yes"/>
      <point x="64" y="740" type="line"/>
    </contour>
    <contour>
      <point x="264" y="366" type="line"/>
      <point x="264" y="572" type="line"/>
      <point x="302" y="572" type="line" smooth="yes"/>
      <point x="369" y="572"/>
      <point x="413" y="532"/>
      <point x="413" y="472" type="curve" smooth="yes"/>
      <point x="413" y="408"/>
      <point x="369" y="366"/>
      <point x="304" y="366" type="curve" smooth="yes"/>
    </contour>
  </outline>
</glyph>
<glyph name="Q" format="2">
  <advance height="1000" width="882"/>
  <unicode hex="0051"/>
  <outline>
    <contour>
      <point x="712.0" y="-162.0" type="curve"/>
      <point x="813.0" y="-1.0" type="line"/>
      <point x="754.0" y="13.0"/>
      <point x="694.0" y="41.0"/>
      <point x="640.0" y="77.0" type="curve"/>
      <point x="435.0" y="18.0" type="line"/>
      <point x="516.0" y="-64.0"/>
      <point x="610.0" y="-125.0"/>
    </contour>
    <contour>
      <point x="441.0" y="-16.0" type="curve" smooth="yes"/>
      <point x="684.0" y="-16.0"/>
      <point x="838.0" y="133.0"/>
      <point x="838.0" y="371.0" type="curve" smooth="yes"/>
      <point x="838.0" y="611.0"/>
      <point x="679.0" y="756.0"/>
      <point x="441.0" y="756.0" type="curve" smooth="yes"/>
      <point x="203.0" y="756.0"/>
      <point x="44.0" y="606.0"/>
      <point x="44.0" y="371.0" type="curve" smooth="yes"/>
      <point x="44.0" y="137.0"/>
      <point x="198.0" y="-16.0"/>
    </contour>
    <contour>
      <point x="441.0" y="162.0" type="curve" smooth="yes"/>
      <point x="323.0" y="162.0"/>
      <point x="248.0" y="242.0"/>
      <point x="248.0" y="371.0" type="curve" smooth="yes"/>
      <point x="248.0" y="502.0"/>
      <point x="323.0" y="578.0"/>
      <point x="441.0" y="578.0" type="curve" smooth="yes"/>
      <point x="559.0" y="578.0"/>
      <point x="634.0" y="502.0"/>
      <point x="634.0" y="371.0" type="curve" smooth="yes"/>
      <point x="634.0" y="242.0"/>
      <point x="559.0" y="162.0"/>
    </contour>
  </outline>
</glyph>
<glyph name="T" format="2">
  <advance height="1000" width="648"/>
  <unicode hex="0054"/>
  <outline>
    <contour>
      <point x="224.0" y="0.0" type="line"/>
      <point x="424.0" y="0.0" type="line"/>
      <point x="424.0" y="560.0" type="line"/>
      <point x="624.0" y="560.0" type="line"/>
      <point x="624.0" y="740.0" type="line"/>
      <point x="24.0" y="740.0" type="line"/>
      <point x="24.0" y="560.0" type="line"/>
      <point x="224.0" y="560.0" type="line"/>
    </contour>
  </outline>
</glyph>
<glyph name="U" format="2">
  <advance height="1000" width="764"/>
  <unicode hex="0055"/>
  <outline>
    <contour>
      <point x="386" y="-14" type="curve" smooth="yes"/>
      <point x="579" y="-14"/>
      <point x="708.0" y="112.0"/>
      <point x="708" y="298" type="curve" smooth="yes"/>
      <point x="708" y="740" type="line"/>
      <point x="520" y="740" type="line"/>
      <point x="520" y="293" type="line" smooth="yes"/>
      <point x="520.0" y="213.0"/>
      <point x="467" y="158"/>
      <point x="388" y="158" type="curve" smooth="yes"/>
      <point x="309" y="158"/>
      <point x="256.0" y="213.0"/>
      <point x="256" y="293" type="curve" smooth="yes"/>
      <point x="256" y="740" type="line"/>
      <point x="56" y="740" type="line"/>
      <point x="56" y="298" type="line" smooth="yes"/>
      <point x="56" y="112.0"/>
      <point x="188" y="-14"/>
    </contour>
  </outline>
</glyph>
<glyph name="X" format="2">
  <advance height="1000" width="792"/>
  <unicode hex="0058"/>
  <outline>
    <contour>
      <point x="241.0" y="0.0" type="line"/>
      <point x="389.0" y="230.0" type="line"/>
      <point x="537.0" y="0.0" type="line"/>
      <point x="776.0" y="0.0" type="line"/>
      <point x="511.0" y="381.0" type="line"/>
      <point x="763.0" y="740.0" type="line"/>
      <point x="541.0" y="740.0" type="line"/>
      <point x="404.0" y="526.0" type="line"/>
      <point x="267.0" y="740.0" type="line"/>
      <point x="27.0" y="740.0" type="line"/>
      <point x="279.0" y="376.0" type="line"/>
      <point x="16.0" y="0.0" type="line"/>
    </contour>
  </outline>
</glyph>
<glyph name="Y" format="2">
  <advance height="1000" width="759"/>
  <unicode hex="0059"/>
  <outline>
    <contour>
      <point x="282" y="0" type="line"/>
      <point x="482" y="0" type="line"/>
      <point x="482" y="267" type="line"/>
      <point x="747" y="740" type="line"/>
      <point x="539" y="740" type="line"/>
      <point x="390" y="446" type="line"/>
      <point x="241" y="740" type="line"/>
      <point x="12" y="740" type="line"/>
      <point x="282" y="264" type="line"/>
    </contour>
  </outline>
</glyph>
<glyph name="bracketleft" format="2">
  <advance height="1000" width="422"/>
  <unicode hex="005B"/>
  <outline>
    <contour>
      <point x="72" y="-189" type="line"/>
      <point x="386" y="-189" type="line"/>
      <point x="386" y="-39" type="line"/>
      <point x="252" y="-39" type="line"/>
      <point x="252" y="590" type="line"/>
      <point x="386" y="590" type="line"/>
      <point x="386" y="740" type="line"/>
      <point x="72" y="740" type="line"/>
    </contour>
  </outline>
</glyph>
<glyph name="a" format="2">
  <advance height="1000" width="567"/>
  <unicode hex="0061"/>
  <outline>
    <contour>
      <point x="196.0" y="-12.0" type="curve" smooth="yes"/>
      <point x="257.0" y="-12.0"/>
      <point x="304.0" y="16.0"/>
      <point x="334.0" y="67.0" type="curve"/>
      <point x="345.0" y="0.0" type="line"/>
      <point x="523.0" y="0.0" type="line"/>
      <point x="523.0" y="360.0" type="line" smooth="yes"/>
      <point x="523.0" y="480.0"/>
      <point x="429.0" y="548.0"/>
      <point x="275.0" y="548.0" type="curve" smooth="yes"/>
      <point x="199.0" y="548.0"/>
      <point x="128.0" y="533.0"/>
      <point x="63.0" y="509.0" type="curve"/>
      <point x="63.0" y="355.0" type="line"/>
      <point x="116.0" y="385.0"/>
      <point x="176.0" y="403.0"/>
      <point x="234.0" y="403.0" type="curve" smooth="yes"/>
      <point x="300.0" y="403.0"/>
      <point x="333.0" y="385.0"/>
      <point x="333.0" y="352.0" type="curve" smooth="yes"/>
      <point x="333.0" y="339.0" type="line"/>
      <point x="241.0" y="323.0" type="line" smooth="yes"/>
      <point x="107.0" y="299.0"/>
      <point x="36.0" y="248.0"/>
      <point x="36.0" y="141.0" type="curve" smooth="yes"/>
      <point x="36.0" y="51.0"/>
      <point x="100.0" y="-12.0"/>
    </contour>
    <contour>
      <point x="272.0" y="127.0" type="curve" smooth="yes"/>
      <point x="243.0" y="127.0"/>
      <point x="223.0" y="143.0"/>
      <point x="223.0" y="172.0" type="curve" smooth="yes"/>
      <point x="223.0" y="203.0"/>
      <point x="245.0" y="222.0"/>
      <point x="276.0" y="228.0" type="curve" smooth="yes"/>
      <point x="333.0" y="237.0" type="line"/>
      <point x="333.0" y="165.0" type="line"/>
      <point x="322.0" y="141.0"/>
      <point x="299.0" y="127.0"/>
    </contour>
  </outline>
</glyph>
<glyph name="b" format="2">
  <advance height="1000" width="615"/>
  <unicode hex="0062"/>
  <outline>
    <contour>
      <point x="283.0" y="-12.0" type="curve" smooth="yes"/>
      <point x="464.0" y="-12.0"/>
      <point x="579.0" y="103.0"/>
      <point x="579.0" y="285.0" type="curve" smooth="yes"/>
      <point x="579.0" y="444.0"/>
      <point x="506.0" y="548.0"/>
      <point x="380.0" y="548.0" type="curve" smooth="yes"/>
      <point x="318.0" y="548.0"/>
      <point x="271.0" y="522.0"/>
      <point x="238.0" y="484.0" type="curve"/>
      <point x="238.0" y="740.0" type="line"/>
      <point x="48.0" y="740.0" type="line"/>
      <point x="48.0" y="30.0" type="line"/>
      <point x="127.0" y="1.0"/>
      <point x="203.0" y="-12.0"/>
    </contour>
    <contour>
      <point x="292.0" y="142.0" type="curve" smooth="yes"/>
      <point x="274.0" y="142.0"/>
      <point x="256.0" y="145.0"/>
      <point x="238.0" y="154.0" type="curve"/>
      <point x="238.0" y="356.0" type="line"/>
      <point x="256.0" y="371.0"/>
      <point x="280.0" y="380.0"/>
      <point x="301.0" y="380.0" type="curve" smooth="yes"/>
      <point x="357.0" y="380.0"/>
      <point x="388.0" y="337.0"/>
      <point x="388.0" y="263.0" type="curve" smooth="yes"/>
      <point x="388.0" y="189.0"/>
      <point x="351.0" y="142.0"/>
    </contour>
  </outline>
</glyph>
<glyph name="d" format="2">
  <advance height="1000" width="616"/>
  <unicode hex="0064"/>
  <outline>
    <contour>
      <point x="241.0" y="-12.0" type="curve" smooth="yes"/>
      <point x="307.0" y="-12.0"/>
      <point x="352.0" y="20.0"/>
      <point x="379.0" y="74.0" type="curve"/>
      <point x="389.0" y="0.0" type="line"/>
      <point x="568.0" y="0.0" type="line"/>
      <point x="568.0" y="740.0" type="line"/>
      <point x="378.0" y="740.0" type="line"/>
      <point x="378.0" y="521.0" type="line"/>
      <point x="350.0" y="537.0"/>
      <point x="311.0" y="548.0"/>
      <point x="276.0" y="548.0" type="curve" smooth="yes"/>
      <point x="133.0" y="548.0"/>
      <point x="36.0" y="434.0"/>
      <point x="36.0" y="258.0" type="curve" smooth="yes"/>
      <point x="36.0" y="98.0"/>
      <point x="117.0" y="-12.0"/>
    </contour>
    <contour>
      <point x="312.0" y="154.0" type="curve" smooth="yes"/>
      <point x="261.0" y="154.0"/>
      <point x="230.0" y="201.0"/>
      <point x="230.0" y="269.0" type="curve" smooth="yes"/>
      <point x="230.0" y="341.0"/>
      <point x="265.0" y="389.0"/>
      <point x="320.0" y="389.0" type="curve" smooth="yes"/>
      <point x="340.0" y="389.0"/>
      <point x="362.0" y="381.0"/>
      <point x="378.0" y="371.0" type="curve"/>
      <point x="378.0" y="188.0" type="line"/>
      <point x="360.0" y="167.0"/>
      <point x="337.0" y="154.0"/>
    </contour>
  </outline>
</glyph>
<glyph name="e" format="2">
  <advance height="1000" width="581"/>
  <unicode hex="0065"/>
  <outline>
    <contour>
      <point x="321.0" y="-12.0" type="curve" smooth="yes"/>
      <point x="387.0" y="-12.0"/>
      <point x="461.0" y="1.0"/>
      <point x="535.0" y="28.0" type="curve"/>
      <point x="535.0" y="186.0" type="line"/>
      <point x="478.0" y="155.0"/>
      <point x="418.0" y="140.0"/>
      <point x="363.0" y="140.0" type="curve" smooth="yes"/>
      <point x="282.0" y="140.0"/>
      <point x="236.0" y="166.0"/>
      <point x="232.0" y="219.0" type="curve"/>
      <point x="232.0" y="220.0" type="line"/>
      <point x="549.0" y="220.0" type="line"/>
      <point x="549.0" y="246.0" type="line" smooth="yes"/>
      <point x="549.0" y="436.0"/>
      <point x="465.0" y="548.0"/>
      <point x="305.0" y="548.0" type="curve" smooth="yes"/>
      <point x="137.0" y="548.0"/>
      <point x="36.0" y="439.0"/>
      <point x="36.0" y="270.0" type="curve" smooth="yes"/>
      <point x="36.0" y="96.0"/>
      <point x="142.0" y="-12.0"/>
    </contour>
    <contour>
      <point x="299.0" y="420.0" type="curve" smooth="yes"/>
      <point x="342.0" y="420.0"/>
      <point x="363.0" y="390.0"/>
      <point x="363.0" y="327.0" type="curve"/>
      <point x="231.0" y="327.0" type="line"/>
      <point x="233.0" y="388.0"/>
      <point x="255.0" y="420.0"/>
    </contour>
  </outline>
</glyph>
<glyph name="f" format="2">
  <advance height="1000" width="368"/>
  <unicode hex="0066"/>
  <outline>
    <contour>
      <point x="86.0" y="0.0" type="line"/>
      <point x="276.0" y="0.0" type="line"/>
      <point x="276.0" y="376.0" type="line"/>
      <point x="368.0" y="376.0" type="line"/>
      <point x="368.0" y="536.0" type="line"/>
      <point x="276.0" y="536.0" type="line"/>
      <point x="276.0" y="544.0" type="line" smooth="yes"/>
      <point x="276.0" y="582.0"/>
      <point x="296.0" y="607.0"/>
      <point x="336.0" y="607.0" type="curve" smooth="yes"/>
      <point x="360.0" y="607.0"/>
      <point x="388.0" y="603.0"/>
      <point x="410.0" y="596.0" type="curve"/>
      <point x="410.0" y="740.0" type="line"/>
      <point x="376.0" y="749.0"/>
      <point x="337.0" y="754.0"/>
      <point x="305.0" y="754.0" type="curve" smooth="yes"/>
      <point x="174.0" y="754.0"/>
      <point x="86.0" y="683.0"/>
      <point x="86.0" y="544.0" type="curve" smooth="yes"/>
      <point x="86.0" y="536.0" type="line"/>
      <point x="20.0" y="536.0" type="line"/>
      <point x="20.0" y="376.0" type="line"/>
      <point x="86.0" y="376.0" type="line"/>
    </contour>
  </outline>
</glyph>
<glyph name="g" format="2">
  <advance height="1000" width="618"/>
  <unicode hex="0067"/>
  <outline>
    <contour>
      <point x="297.0" y="-200.0" type="curve" smooth="yes"/>
      <point x="448.0" y="-200.0"/>
      <point x="574.0" y="-117.0"/>
      <point x="574.0" y="70.0" type="curve" smooth="yes"/>
      <point x="574.0" y="536.0" type="line"/>
      <point x="490.0" y="536.0" type="line"/>
      <point x="455.0" y="480.0" type="line"/>
      <point x="421.0" y="521.0"/>
      <point x="371.0" y="548.0"/>
      <point x="300.0" y="548.0" type="curve" smooth="yes"/>
      <point x="149.0" y="548.0"/>
      <point x="36.0" y="448.0"/>
      <point x="36.0" y="275.0" type="curve" smooth="yes"/>
      <point x="36.0" y="118.0"/>
      <point x="115.0" y="22.0"/>
      <point x="254.0" y="22.0" type="curve" smooth="yes"/>
      <point x="303.0" y="22.0"/>
      <point x="352.0" y="40.0"/>
      <point x="381.0" y="77.0" type="curve"/>
      <point x="381.0" y="44.0" type="line" smooth="yes"/>
      <point x="381.0" y="-37.0"/>
      <point x="306.0" y="-57.0"/>
      <point x="247.0" y="-57.0" type="curve" smooth="yes"/>
      <point x="190.0" y="-57.0"/>
      <point x="127.0" y="-39.0"/>
      <point x="72.0" y="-6.0" type="curve"/>
      <point x="72.0" y="-162.0" type="line"/>
      <point x="140.0" y="-188.0"/>
      <point x="215.0" y="-200.0"/>
    </contour>
    <contour>
      <point x="313.0" y="172.0" type="curve" smooth="yes"/>
      <point x="262.0" y="172.0"/>
      <point x="230.0" y="216.0"/>
      <point x="230.0" y="282.0" type="curve" smooth="yes"/>
      <point x="230.0" y="342.0"/>
      <point x="265.0" y="392.0"/>
      <point x="322.0" y="392.0" type="curve" smooth="yes"/>
      <point x="342.0" y="392.0"/>
      <point x="362.0" y="387.0"/>
      <point x="379.0" y="381.0" type="curve"/>
      <point x="379.0" y="194.0" type="line"/>
      <point x="361.0" y="182.0"/>
      <point x="340.0" y="172.0"/>
    </contour>
  </outline>
</glyph>
<glyph name="h" format="2">
  <advance height="1000" width="602"/>
  <unicode hex="0068"/>
  <outline>
    <contour>
      <point x="238.0" y="0.0" type="line"/>
      <point x="238.0" y="345.0" type="line"/>
      <point x="256.0" y="371.0"/>
      <point x="280.0" y="383.0"/>
      <point x="308.0" y="383.0" type="curve" smooth="yes"/>
      <point x="345.0" y="383.0"/>
      <point x="368.0" y="361.0"/>
      <point x="368.0" y="317.0" type="curve" smooth="yes"/>
      <point x="368.0" y="0.0" type="line"/>
      <point x="558.0" y="0.0" type="line"/>
      <point x="558.0" y="360.0" type="line" smooth="yes"/>
      <point x="558.0" y="479.0"/>
      <point x="490.0" y="548.0"/>
      <point x="390.0" y="548.0" type="curve" smooth="yes"/>
      <point x="323.0" y="548.0"/>
      <point x="272.0" y="517.0"/>
      <point x="238.0" y="466.0" type="curve"/>
      <point x="238.0" y="740.0" type="line"/>
      <point x="48.0" y="740.0" type="line"/>
      <point x="48.0" y="0.0" type="line"/>
    </contour>
  </outline>
</glyph>
<glyph name="j" format="2">
  <advance height="1000" width="293"/>
  <unicode hex="006A"/>
  <outline>
    <contour>
      <point x="55" y="584" type="line"/>
      <point x="245" y="584" type="line"/>
      <point x="245" y="740" type="line"/>
      <point x="55" y="740" type="line"/>
    </contour>
    <contour>
      <point x="-39" y="-189" type="line" smooth="yes"/>
      <point x="134" y="-189"/>
      <point x="245.0" y="-92.0"/>
      <point x="245" y="68" type="curve" smooth="yes"/>
      <point x="245" y="536" type="line"/>
      <point x="55" y="536" type="line"/>
      <point x="55" y="59" type="line" smooth="yes"/>
      <point x="55" y="-7.0"/>
      <point x="18" y="-37"/>
      <point x="-39" y="-37" type="curve" smooth="yes"/>
      <point x="-48" y="-37" type="line"/>
      <point x="-48" y="-189" type="line"/>
    </contour>
  </outline>
</glyph>
<glyph name="k" format="2">
  <advance height="1000" width="618"/>
  <unicode hex="006B"/>
  <outline>
    <contour>
      <point x="48.0" y="0.0" type="line"/>
      <point x="238.0" y="0.0" type="line"/>
      <point x="238.0" y="231.0" type="line"/>
      <point x="384.0" y="0.0" type="line"/>
      <point x="606.0" y="0.0" type="line"/>
      <point x="420.0" y="285.0" type="line"/>
      <point x="598.0" y="536.0" type="line"/>
      <point x="387.0" y="536.0" type="line"/>
      <point x="238.0" y="316.0" type="line"/>
      <point x="238.0" y="740.0" type="line"/>
      <point x="48.0" y="740.0" type="line"/>
    </contour>
  </outline>
</glyph>
<glyph name="m" format="2">
  <advance height="1000" width="917"/>
  <unicode hex="006D"/>
  <outline>
    <contour>
      <point x="48.0" y="0.0" type="line"/>
      <point x="238.0" y="0.0" type="line"/>
      <point x="238.0" y="345.0" type="line"/>
      <point x="255.0" y="371.0"/>
      <point x="278.0" y="383.0"/>
      <point x="307.0" y="383.0" type="curve" smooth="yes"/>
      <point x="343.0" y="383.0"/>
      <point x="365.0" y="361.0"/>
      <point x="365.0" y="317.0" type="curve"/>
      <point x="365.0" y="0.0" type="line"/>
      <point x="555.0" y="0.0" type="line"/>
      <point x="555.0" y="349.0" type="line"/>
      <point x="573.0" y="371.0"/>
      <point x="597.0" y="383.0"/>
      <point x="624.0" y="383.0" type="curve" smooth="yes"/>
      <point x="658.0" y="383.0"/>
      <point x="683.0" y="361.0"/>
      <point x="683.0" y="317.0" type="curve" smooth="yes"/>
      <point x="683.0" y="0.0" type="line"/>
      <point x="873.0" y="0.0" type="line"/>
      <point x="873.0" y="360.0" type="line" smooth="yes"/>
      <point x="873.0" y="479.0"/>
      <point x="803.0" y="548.0"/>
      <point x="701.0" y="548.0" type="curve" smooth="yes"/>
      <point x="640.0" y="548.0"/>
      <point x="586.0" y="528.0"/>
      <point x="536.0" y="460.0" type="curve"/>
      <point x="508.0" y="514.0"/>
      <point x="457.0" y="548.0"/>
      <point x="389.0" y="548.0" type="curve" smooth="yes"/>
      <point x="320.0" y="548.0"/>
      <point x="273.0" y="518.0"/>
      <point x="238.0" y="467.0" type="curve"/>
      <point x="238.0" y="536.0" type="line"/>
      <point x="48.0" y="536.0" type="line"/>
    </contour>
  </outline>
</glyph>
<glyph name="q" format="2">
  <advance height="1000" width="617"/>
  <unicode hex="0071"/>
  <outline>
    <contour>
      <point x="379.0" y="-189.0" type="line"/>
      <point x="569.0" y="-189.0" type="line"/>
      <point x="569.0" y="536.0" type="line"/>
      <point x="489.0" y="536.0" type="line"/>
      <point x="453.0" y="479.0" type="line"/>
      <point x="422.0" y="519.0"/>
      <point x="363.0" y="547.0"/>
      <point x="298.0" y="548.0" type="curve" smooth="yes"/>
      <point x="141.0" y="550.0"/>
      <point x="36.0" y="435.0"/>
      <point x="36.0" y="258.0" type="curve" smooth="yes"/>
      <point x="36.0" y="94.0"/>
      <point x="121.0" y="-12.0"/>
      <point x="250.0" y="-12.0" type="curve" smooth="yes"/>
      <point x="300.0" y="-12.0"/>
      <point x="346.0" y="7.0"/>
      <point x="379.0" y="44.0" type="curve"/>
    </contour>
    <contour>
      <point x="312.0" y="152.0" type="curve" smooth="yes"/>
      <point x="262.0" y="152.0"/>
      <point x="231.0" y="197.0"/>
      <point x="231.0" y="265.0" type="curve" smooth="yes"/>
      <point x="231.0" y="337.0"/>
      <point x="264.0" y="383.0"/>
      <point x="319.0" y="383.0" type="curve" smooth="yes"/>
      <point x="339.0" y="383.0"/>
      <point x="361.0" y="377.0"/>
      <point x="378.0" y="369.0" type="curve"/>
      <point x="378.0" y="175.0" type="line"/>
      <point x="361.0" y="161.0"/>
      <point x="339.0" y="152.0"/>
    </contour>
  </outline>
</glyph>
<glyph name="s" format="2">
  <advance height="1000" width="501"/>
  <unicode hex="0073"/>
  <outline>
    <contour>
      <point x="239.0" y="-14.0" type="curve" smooth="yes"/>
      <point x="393.0" y="-14.0"/>
      <point x="469.0" y="57.0"/>
      <point x="469.0" y="168.0" type="curve" smooth="yes"/>
      <point x="469.0" y="254.0"/>
      <point x="421.0" y="311.0"/>
      <point x="309.0" y="342.0" type="curve" smooth="yes"/>
      <point x="273.0" y="353.0" type="line" smooth="yes"/>
      <point x="242.0" y="362.0"/>
      <point x="232.0" y="373.0"/>
      <point x="232.0" y="388.0" type="curve" smooth="yes"/>
      <point x="232.0" y="405.0"/>
      <point x="249.0" y="415.0"/>
      <point x="277.0" y="415.0" type="curve" smooth="yes"/>
      <point x="331.0" y="415.0"/>
      <point x="385.0" y="401.0"/>
      <point x="438.0" y="376.0" type="curve"/>
      <point x="438.0" y="525.0" type="line"/>
      <point x="378.0" y="540.0"/>
      <point x="311.0" y="550.0"/>
      <point x="248.0" y="550.0" type="curve" smooth="yes"/>
      <point x="102.0" y="550.0"/>
      <point x="32.0" y="484.0"/>
      <point x="32.0" y="375.0" type="curve" smooth="yes"/>
      <point x="32.0" y="286.0"/>
      <point x="77.0" y="232.0"/>
      <point x="188.0" y="200.0" type="curve" smooth="yes"/>
      <point x="224.0" y="190.0" type="line" smooth="yes"/>
      <point x="258.0" y="181.0"/>
      <point x="268.0" y="169.0"/>
      <point x="268.0" y="154.0" type="curve" smooth="yes"/>
      <point x="268.0" y="135.0"/>
      <point x="250.0" y="124.0"/>
      <point x="218.0" y="124.0" type="curve" smooth="yes"/>
      <point x="159.0" y="124.0"/>
      <point x="96.0" y="141.0"/>
      <point x="42.0" y="169.0" type="curve"/>
      <point x="42.0" y="15.0" type="line"/>
      <point x="104.0" y="-3.0"/>
      <point x="175.0" y="-14.0"/>
    </contour>
  </outline>
</glyph>
<glyph name="t" format="2">
  <advance height="1000" width="405"/>
  <unicode hex="0074"/>
  <outline>
    <contour>
      <point x="247.0" y="-12.0" type="curve" smooth="yes"/>
      <point x="290.0" y="-12.0"/>
      <point x="336.0" y="-5.0"/>
      <point x="377.0" y="12.0" type="curve"/>
      <point x="377.0" y="174.0" type="line"/>
      <point x="360.0" y="163.0"/>
      <point x="345.0" y="158.0"/>
      <point x="327.0" y="158.0" type="curve" smooth="yes"/>
      <point x="299.0" y="158.0"/>
      <point x="279.0" y="178.0"/>
      <point x="279.0" y="211.0" type="curve" smooth="yes"/>
      <point x="279.0" y="376.0" type="line"/>
      <point x="373.0" y="376.0" type="line"/>
      <point x="373.0" y="536.0" type="line"/>
      <point x="279.0" y="536.0" type="line"/>
      <point x="279.0" y="694.0" type="line"/>
      <point x="89.0" y="694.0" type="line"/>
      <point x="89.0" y="536.0" type="line"/>
      <point x="24.0" y="536.0" type="line"/>
      <point x="24.0" y="376.0" type="line"/>
      <point x="89.0" y="376.0" type="line"/>
      <point x="89.0" y="153.0" type="line" smooth="yes"/>
      <point x="89.0" y="50.0"/>
      <point x="148.0" y="-12.0"/>
    </contour>
  </outline>
</glyph>
<glyph name="w" format="2">
  <advance height="1000" width="930"/>
  <unicode hex="0077"/>
  <outline>
    <contour>
      <point x="169.0" y="0.0" type="line"/>
      <point x="385.0" y="0.0" type="line"/>
      <point x="465.0" y="312.0" type="line"/>
      <point x="545.0" y="0.0" type="line"/>
      <point x="761.0" y="0.0" type="line"/>
      <point x="922.0" y="536.0" type="line"/>
      <point x="749.0" y="536.0" type="line"/>
      <point x="659.0" y="181.0" type="line"/>
      <point x="569.0" y="536.0" type="line"/>
      <point x="383.0" y="536.0" type="line"/>
      <point x="293.0" y="181.0" type="line"/>
      <point x="203.0" y="536.0" type="line"/>
      <point x="8.0" y="536.0" type="line"/>
    </contour>
  </outline>
</glyph>
<glyph name="x" format="2">
  <advance height="1000" width="610"/>
  <unicode hex="0078"/>
  <outline>
    <contour>
      <point x="12" y="0" type="line"/>
      <point x="217" y="0" type="line"/>
      <point x="297" y="133" type="line"/>
      <point x="377" y="0" type="line"/>
      <point x="598" y="0" type="line"/>
      <point x="411" y="275" type="line"/>
      <point x="586" y="536" type="line"/>
      <point x="385" y="536" type="line"/>
      <point x="310" y="408" type="line"/>
      <point x="235" y="536" type="line"/>
      <point x="19" y="536" type="line"/>
      <point x="196" y="271" type="line"/>
    </contour>
  </outline>
</glyph>
<glyph name="z" format="2">
  <advance height="1000" width="542"/>
  <unicode hex="007A"/>
  <outline>
    <contour>
      <point x="36.0" y="0.0" type="line"/>
      <point x="506.0" y="0.0" type="line"/>
      <point x="506.0" y="160.0" type="line"/>
      <point x="294.0" y="160.0" type="line"/>
      <point x="498.0" y="426.0" type="line"/>
      <point x="498.0" y="536.0" type="line"/>
      <point x="40.0" y="536.0" type="line"/>
      <point x="40.0" y="376.0" type="line"/>
      <point x="240.0" y="376.0" type="line"/>
      <point x="36.0" y="110.0" type="line"/>
    </contour>
  </outline>
</glyph>
<glyph name="braceleft" format="2">
  <advance height="1000" width="531"/>
  <unicode hex="007B"/>
  <outline>
    <contour>
      <point x="442" y="-189" type="curve" smooth="yes"/>
      <point x="483" y="-189" type="line"/>
      <point x="483" y="-39" type="line"/>
      <point x="465" y="-39" type="line" smooth="yes"/>
      <point x="396" y="-39"/>
      <point x="360" y="-11"/>
      <point x="365" y="48" type="curve" smooth="yes"/>
      <point x="371" y="122" type="line" smooth="yes"/>
      <point x="377" y="196"/>
      <point x="323" y="252"/>
      <point x="234" y="276" type="curve"/>
      <point x="324" y="297"/>
      <point x="377" y="352"/>
      <point x="371" y="429" type="curve" smooth="yes"/>
      <point x="365" y="503" type="line" smooth="yes"/>
      <point x="360" y="562"/>
      <point x="397" y="590"/>
      <point x="465" y="590" type="curve" smooth="yes"/>
      <point x="483" y="590" type="line"/>
      <point x="483" y="740" type="line"/>
      <point x="442" y="740" type="line" smooth="yes"/>
      <point x="263" y="740"/>
      <point x="171" y="671"/>
      <point x="180" y="552" type="curve" smooth="yes"/>
      <point x="186" y="472" type="line"/>
      <point x="192" y="394"/>
      <point x="141" y="362"/>
      <point x="48" y="350" type="curve"/>
      <point x="48" y="200" type="line"/>
      <point x="141" y="189"/>
      <point x="192" y="156"/>
      <point x="186" y="78" type="curve" smooth="yes"/>
      <point x="180" y="-2" type="line" smooth="yes"/>
      <point x="171" y="-120"/>
      <point x="263" y="-189"/>
    </contour>
  </outline>
</glyph>
<glyph name="exclamdown" format="2">
  <advance height="1000" width="313"/>
  <unicode hex="00A1"/>
  <outline>
    <contour>
      <point x="65" y="-189" type="line" smooth="yes"/>
      <point x="249" y="-189" type="line" smooth="yes"/>
      <point x="249" y="298" type="line" smooth="yes"/>
      <point x="65" y="298" type="line" smooth="yes"/>
    </contour>
    <contour>
      <point x="64" y="372" type="line" smooth="yes"/>
      <point x="248" y="372" type="line" smooth="yes"/>
      <point x="248" y="536" type="line" smooth="yes"/>
      <point x="64" y="536" type="line" smooth="yes"/>
    </contour>
  </outline>
</glyph>
<glyph name="questiondown" format="2">
  <advance height="1000" width="533"/>
  <unicode hex="00BF"/>
  <outline>
    <contour>
      <point x="283" y="-233" type="curve" smooth="yes"/>
      <point x="365" y="-233"/>
      <point x="428" y="-222"/>
      <point x="501" y="-196" type="curve"/>
      <point x="501" y="-25" type="line"/>
      <point x="447" y="-53"/>
      <point x="399" y="-68"/>
      <point x="340" y="-68" type="curve" smooth="yes"/>
      <point x="275" y="-68"/>
      <point x="232" y="-36"/>
      <point x="232" y="11" type="curve" smooth="yes"/>
      <point x="232" y="49"/>
      <point x="248" y="82"/>
      <point x="287" y="120" type="curve" smooth="yes"/>
      <point x="339" y="170"/>
      <point x="377" y="236"/>
      <point x="377" y="341" type="curve"/>
      <point x="204" y="341" type="line"/>
      <point x="204" y="280"/>
      <point x="174" y="227"/>
      <point x="124" y="180" type="curve" smooth="yes"/>
      <point x="65" y="124"/>
      <point x="32" y="63"/>
      <point x="32" y="-25" type="curve" smooth="yes"/>
      <point x="32" y="-154"/>
      <point x="137" y="-233"/>
    </contour>
    <contour>
      <point x="197" y="422" type="line"/>
      <point x="382" y="422" type="line"/>
      <point x="382" y="588" type="line"/>
      <point x="197" y="588" type="line"/>
    </contour>
  </outline>
</glyph>
<glyph name="Edieresis" format="2">
  <advance height="1000" width="597"/>
  <unicode hex="00CB"/>
  <outline>
    <contour>
      <point x="64" y="0" type="line"/>
      <point x="541" y="0" type="line"/>
      <point x="541" y="178" type="line"/>
      <point x="264" y="178" type="line"/>
      <point x="264" y="294" type="line"/>
      <point x="516" y="294" type="line"/>
      <point x="516" y="452" type="line"/>
      <point x="264" y="452" type="line"/>
      <point x="264" y="562" type="line"/>
      <point x="531" y="562" type="line"/>
      <point x="531" y="740" type="line"/>
      <point x="64" y="740" type="line"/>
    </contour>
    <contour>
      <point x="140" y="779" type="line"/>
      <point x="272" y="779" type="line"/>
      <point x="272" y="911" type="line"/>
      <point x="140" y="911" type="line"/>
    </contour>
    <contour>
      <point x="332" y="779" type="line"/>
      <point x="464" y="779" type="line"/>
      <point x="464" y="911" type="line"/>
      <point x="332" y="911" type="line"/>
    </contour>
  </outline>
</glyph>
<glyph name="Oacute" format="2">
  <advance height="1000" width="882"/>
  <unicode hex="00D3"/>
  <outline>
    <contour>
      <point x="441.0" y="-16.0" type="curve" smooth="yes"/>
      <point x="684.0" y="-16.0"/>
      <point x="838.0" y="133.0"/>
      <point x="838.0" y="371.0" type="curve" smooth="yes"/>
      <point x="838.0" y="611.0"/>
      <point x="679.0" y="756.0"/>
      <point x="441.0" y="756.0" type="curve" smooth="yes"/>
      <point x="203.0" y="756.0"/>
      <point x="44.0" y="606.0"/>
      <point x="44.0" y="371.0" type="curve" smooth="yes"/>
      <point x="44.0" y="137.0"/>
      <point x="198.0" y="-16.0"/>
    </contour>
    <contour>
      <point x="441.0" y="162.0" type="curve" smooth="yes"/>
      <point x="323.0" y="162.0"/>
      <point x="248.0" y="242.0"/>
      <point x="248.0" y="371.0" type="curve" smooth="yes"/>
      <point x="248.0" y="502.0"/>
      <point x="323.0" y="578.0"/>
      <point x="441.0" y="578.0" type="curve" smooth="yes"/>
      <point x="559.0" y="578.0"/>
      <point x="634.0" y="502.0"/>
      <point x="634.0" y="371.0" type="curve" smooth="yes"/>
      <point x="634.0" y="242.0"/>
      <point x="559.0" y="162.0"/>
    </contour>
    <contour>
      <point x="502" y="787" type="line"/>
      <point x="624" y="943" type="line"/>
      <point x="458" y="943" type="line"/>
      <point x="357" y="787" type="line"/>
    </contour>
  </outline>
</glyph>
<glyph name="edieresis" format="2">
  <advance height="1000" width="581"/>
  <unicode hex="00EB"/>
  <outline>
    <contour>
      <point x="321.0" y="-12.0" type="curve" smooth="yes"/>
      <point x="387.0" y="-12.0"/>
      <point x="461.0" y="1.0"/>
      <point x="535.0" y="28.0" type="curve"/>
      <point x="535.0" y="186.0" type="line"/>
      <point x="478.0" y="155.0"/>
      <point x="418.0" y="140.0"/>
      <point x="363.0" y="140.0" type="curve" smooth="yes"/>
      <point x="282.0" y="140.0"/>
      <point x="236.0" y="166.0"/>
      <point x="232.0" y="219.0" type="curve"/>
      <point x="232.0" y="220.0" type="line"/>
      <point x="549.0" y="220.0" type="line"/>
      <point x="549.0" y="246.0" type="line" smooth="yes"/>
      <point x="549.0" y="436.0"/>
      <point x="465.0" y="548.0"/>
      <point x="305.0" y="548.0" type="curve" smooth="yes"/>
      <point x="137.0" y="548.0"/>
      <point x="36.0" y="439.0"/>
      <point x="36.0" y="270.0" type="curve" smooth="yes"/>
      <point x="36.0" y="96.0"/>
      <point x="142.0" y="-12.0"/>
    </contour>
    <contour>
      <point x="299.0" y="420.0" type="curve" smooth="yes"/>
      <point x="342.0" y="420.0"/>
      <point x="363.0" y="390.0"/>
      <point x="363.0" y="327.0" type="curve"/>
      <point x="231.0" y="327.0" type="line"/>
      <point x="233.0" y="388.0"/>
      <point x="255.0" y="420.0"/>
    </contour>
    <contour>
      <point x="130" y="600" type="line"/>
      <point x="262" y="600" type="line"/>
      <point x="262" y="732" type="line"/>
      <point x="130" y="732" type="line"/>
    </contour>
    <contour>
      <point x="322" y="600" type="line"/>
      <point x="454" y="600" type="line"/>
      <point x="454" y="732" type="line"/>
      <point x="322" y="732" type="line"/>
    </contour>
  </outline>
</glyph>
<glyph name="Iotatonos" format="2">
  <advance height="1000" width="503"/>
  <unicode hex="038A"/>
  <outline>
    <contour>
      <point x="239" y="0" type="line"/>
      <point x="439" y="0" type="line"/>
      <point x="439" y="740" type="line"/>
      <point x="239" y="740" type="line"/>
    </contour>
    <contour>
      <point x="0" y="532" type="line"/>
      <point x="144" y="532" type="line"/>
      <point x="199" y="740" type="line"/>
      <point x="47" y="740" type="line"/>
    </contour>
  </outline>
</glyph>
<glyph name="Omicrontonos" format="2">
  <advance height="1000" width="997"/>
  <unicode hex="038C"/>
  <outline>
    <contour>
      <point x="556.0" y="-16.0" type="curve" smooth="yes"/>
      <point x="799.0" y="-16.0"/>
      <point x="953.0" y="133.0"/>
      <point x="953.0" y="371.0" type="curve" smooth="yes"/>
      <point x="953.0" y="611.0"/>
      <point x="794.0" y="756.0"/>
      <point x="556.0" y="756.0" type="curve" smooth="yes"/>
      <point x="318.0" y="756.0"/>
      <point x="159.0" y="606.0"/>
      <point x="159.0" y="371.0" type="curve" smooth="yes"/>
      <point x="159.0" y="137.0"/>
      <point x="313.0" y="-16.0"/>
    </contour>
    <contour>
      <point x="556.0" y="162.0" type="curve" smooth="yes"/>
      <point x="438.0" y="162.0"/>
      <point x="363.0" y="242.0"/>
      <point x="363.0" y="371.0" type="curve" smooth="yes"/>
      <point x="363.0" y="502.0"/>
      <point x="438.0" y="578.0"/>
      <point x="556.0" y="578.0" type="curve" smooth="yes"/>
      <point x="674.0" y="578.0"/>
      <point x="749.0" y="502.0"/>
      <point x="749.0" y="371.0" type="curve" smooth="yes"/>
      <point x="749.0" y="242.0"/>
      <point x="674.0" y="162.0"/>
    </contour>
    <contour>
      <point x="0" y="532" type="line"/>
      <point x="144" y="532" type="line"/>
      <point x="199" y="740" type="line"/>
      <point x="47" y="740" type="line"/>
    </contour>
  </outline>
</glyph>
<glyph name="Beta" format="2">
  <advance height="1000" width="655"/>
  <unicode hex="0392"/>
  <outline>
    <contour>
      <point x="64" y="0" type="line"/>
      <point x="354" y="0" type="line" smooth="yes"/>
      <point x="523" y="0"/>
      <point x="615" y="74"/>
      <point x="615" y="205" type="curve" smooth="yes"/>
      <point x="615" y="296"/>
      <point x="561" y="353"/>
      <point x="464" y="376" type="curve"/>
      <point x="545" y="404"/>
      <point x="591" y="464"/>
      <point x="591" y="553" type="curve" smooth="yes"/>
      <point x="591" y="674"/>
      <point x="501" y="740"/>
      <point x="337" y="740" type="curve" smooth="yes"/>
      <point x="64" y="740" type="line"/>
    </contour>
    <contour>
      <point x="262" y="441" type="line"/>
      <point x="262" y="593" type="line"/>
      <point x="313" y="593" type="line" smooth="yes"/>
      <point x="361" y="593"/>
      <point x="394" y="566"/>
      <point x="394" y="517" type="curve" smooth="yes"/>
      <point x="394" y="470"/>
      <point x="361" y="441"/>
      <point x="313" y="441" type="curve" smooth="yes"/>
    </contour>
    <contour>
      <point x="262" y="154" type="line"/>
      <point x="262" y="308" type="line"/>
      <point x="331" y="308" type="line" smooth="yes"/>
      <point x="381" y="308"/>
      <point x="416" y="280"/>
      <point x="416" y="232" type="curve" smooth="yes"/>
      <point x="416" y="183"/>
      <point x="381" y="154"/>
      <point x="331" y="154" type="curve" smooth="yes"/>
    </contour>
  </outline>
</glyph>
<glyph name="Iota" format="2">
  <advance height="1000" width="328"/>
  <unicode hex="0399"/>
  <outline>
    <contour>
      <point x="64" y="0" type="line"/>
      <point x="264" y="0" type="line"/>
      <point x="264" y="740" type="line"/>
      <point x="64" y="740" type="line"/>
    </contour>
  </outline>
</glyph>
<glyph name="Mu" format="2">
  <advance height="1000" width="992"/>
  <unicode hex="039C"/>
  <outline>
    <contour>
      <point x="64" y="0" type="line"/>
      <point x="244" y="0" type="line"/>
      <point x="244" y="544" type="line"/>
      <point x="413" y="99" type="line"/>
      <point x="559" y="99" type="line"/>
      <point x="728" y="544" type="line"/>
      <point x="728" y="0" type="line"/>
      <point x="928" y="0" type="line"/>
      <point x="928" y="740" type="line"/>
      <point x="637" y="740" type="line"/>
      <point x="501" y="369" type="line"/>
      <point x="365" y="740" type="line"/>
      <point x="64" y="740" type="line"/>
    </contour>
  </outline>
</glyph>
<glyph name="Xi" format="2">
  <advance height="1000" width="649"/>
  <unicode hex="039E"/>
  <outline>
    <contour>
      <point x="73.0" y="740.0" type="line"/>
      <point x="73.0" y="562.0" type="line"/>
      <point x="576.0" y="562.0" type="line"/>
      <point x="576.0" y="740.0" type="line"/>
    </contour>
    <contour>
      <point x="95.0" y="452.0" type="line"/>
      <point x="95.0" y="294.0" type="line"/>
      <point x="554.0" y="294.0" type="line"/>
      <point x="554.0" y="452.0" type="line"/>
    </contour>
    <contour>
      <point x="64.0" y="178.0" type="line"/>
      <point x="64.0" y="0.0" type="line"/>
      <point x="585.0" y="0.0" type="line"/>
      <point x="585.0" y="178.0" type="line"/>
    </contour>
  </outline>
</glyph>
<glyph name="Upsilon" format="2">
  <advance height="1000" width="759"/>
  <unicode hex="03A5"/>
  <outline>
    <contour>
      <point x="282" y="0" type="line"/>
      <point x="482" y="0" type="line"/>
      <point x="482" y="267" type="line"/>
      <point x="747" y="740" type="line"/>
      <point x="539" y="740" type="line"/>
      <point x="390" y="446" type="line"/>
      <point x="241" y="740" type="line"/>
      <point x="12" y="740" type="line"/>
      <point x="282" y="264" type="line"/>
    </contour>
  </outline>
</glyph>
<glyph name="Psi" format="2">
  <advance height="1000" width="796"/>
  <unicode hex="03A8"/>
  <outline>
    <contour>
      <point x="395" y="99" type="curve" smooth="yes"/>
      <point x="616" y="99"/>
      <point x="764" y="243"/>
      <point x="764" y="460" type="curve" smooth="yes"/>
      <point x="764" y="740" type="line"/>
      <point x="564" y="740" type="line"/>
      <point x="564" y="459" type="line" smooth="yes"/>
      <point x="564" y="356"/>
      <point x="497" y="288"/>
      <point x="398" y="288" type="curve" smooth="yes"/>
      <point x="299" y="288"/>
      <point x="232" y="356"/>
      <point x="232" y="459" type="curve" smooth="yes"/>
      <point x="232" y="740" type="line"/>
      <point x="32" y="740" type="line"/>
      <point x="32" y="460" type="line" smooth="yes"/>
      <point x="32" y="243"/>
      <point x="178" y="99"/>
    </contour>
    <contour>
      <point x="308" y="0" type="line"/>
      <point x="488" y="0" type="line"/>
      <point x="488" y="716" type="line"/>
      <point x="308" y="716" type="line"/>
    </contour>
  </outline>
</glyph>
<glyph name="Iotadieresis" format="2">
  <advance height="1000" width="328"/>
  <unicode hex="03AA"/>
  <outline>
    <contour>
      <point x="64" y="0" type="line"/>
      <point x="264" y="0" type="line"/>
      <point x="264" y="740" type="line"/>
      <point x="64" y="740" type="line"/>
    </contour>
    <contour>
      <point x="2" y="779" type="line"/>
      <point x="134" y="779" type="line"/>
      <point x="134" y="911" type="line"/>
      <point x="2" y="911" type="line"/>
    </contour>
    <contour>
      <point x="194" y="779" type="line"/>
      <point x="326" y="779" type="line"/>
      <point x="326" y="911" type="line"/>
      <point x="194" y="911" type="line"/>
    </contour>
  </outline>
</glyph>
<glyph name="Upsilondieresis" format="2">
  <advance height="1000" width="759"/>
  <unicode hex="03AB"/>
  <outline>
    <contour>
      <point x="282" y="0" type="line"/>
      <point x="482" y="0" type="line"/>
      <point x="482" y="267" type="line"/>
      <point x="747" y="740" type="line"/>
      <point x="539" y="740" type="line"/>
      <point x="390" y="446" type="line"/>
      <point x="241" y="740" type="line"/>
      <point x="12" y="740" type="line"/>
      <point x="282" y="264" type="line"/>
    </contour>
    <contour>
      <point x="217" y="804" type="line"/>
      <point x="349" y="804" type="line"/>
      <point x="349" y="936" type="line"/>
      <point x="217" y="936" type="line"/>
    </contour>
    <contour>
      <point x="409" y="804" type="line"/>
      <point x="541" y="804" type="line"/>
      <point x="541" y="936" type="line"/>
      <point x="409" y="936" type="line"/>
    </contour>
  </outline>
</glyph>
<glyph name="upsilondieresistonos" format="2">
  <advance height="1000" width="550"/>
  <unicode hex="03B0"/>
  <outline>
    <contour>
      <point x="233.0" y="-7.0" type="curve" smooth="yes"/>
      <point x="396.0" y="-7.0"/>
      <point x="506.0" y="110.0"/>
      <point x="506.0" y="295.0" type="curve" smooth="yes"/>
      <point x="506.0" y="388.0"/>
      <point x="497.0" y="477.1515151515151"/>
      <point x="480.0" y="526.0" type="curve"/>
      <point x="289.0" y="526.0" type="line"/>
      <point x="307.0" y="475.2851711026616"/>
      <point x="316.0" y="387.0"/>
      <point x="316.0" y="296.0" type="curve" smooth="yes"/>
      <point x="316.0" y="206.0"/>
      <point x="285.0" y="155.0"/>
      <point x="241.0" y="155.0" type="curve" smooth="yes"/>
      <point x="205.0" y="155.0"/>
      <point x="186.0" y="181.0"/>
      <point x="186.0" y="220.0" type="curve" smooth="yes"/>
      <point x="186.0" y="526.0" type="line"/>
      <point x="-5.0" y="526.0" type="line"/>
      <point x="-5.0" y="211.0" type="line" smooth="yes"/>
      <point x="-5.0" y="66.0"/>
      <point x="90.0" y="-7.0"/>
    </contour>
    <contour>
      <point x="59" y="592" type="line"/>
      <point x="143" y="592" type="line"/>
      <point x="143" y="676" type="line"/>
      <point x="59" y="676" type="line"/>
    </contour>
    <contour>
      <point x="178" y="592" type="line"/>
      <point x="306" y="592" type="line"/>
      <point x="361" y="795" type="line"/>
      <point x="225" y="795" type="line"/>
    </contour>
    <contour>
      <point x="362" y="592" type="line"/>
      <point x="446" y="592" type="line"/>
      <point x="446" y="676" type="line"/>
      <point x="362" y="676" type="line"/>
    </contour>
  </outline>
</glyph>
<glyph name="alpha" format="2">
  <advance height="1000" width="660"/>
  <unicode hex="03B1"/>
  <outline>
    <contour>
      <point x="239.0" y="-10.0" type="curve" smooth="yes"/>
      <point x="314.0" y="-10.0"/>
      <point x="362.0" y="32.0"/>
      <point x="395.0" y="90.0" type="curve"/>
      <point x="397.0" y="79.0" type="line" smooth="yes"/>
      <point x="407.0" y="26.0"/>
      <point x="457.0" y="-10.0"/>
      <point x="521.0" y="-10.0" type="curve" smooth="yes"/>
      <point x="557.0" y="-10.0"/>
      <point x="603.0" y="-2.0"/>
      <point x="636.0" y="10.0" type="curve"/>
      <point x="636.0" y="160.0" type="line"/>
      <point x="629.0" y="156.0"/>
      <point x="617.0" y="153.0"/>
      <point x="607.0" y="153.0" type="curve" smooth="yes"/>
      <point x="589.0" y="153.0"/>
      <point x="577.0" y="165.0"/>
      <point x="577.0" y="182.0" type="curve" smooth="yes"/>
      <point x="577.0" y="536.0" type="line"/>
      <point x="387.0" y="536.0" type="line"/>
      <point x="387.0" y="476.0" type="line"/>
      <point x="366.0" y="516.0"/>
      <point x="314.0" y="546.0"/>
      <point x="256.0" y="546.0" type="curve" smooth="yes"/>
      <point x="124.0" y="546.0"/>
      <point x="36.0" y="435.0"/>
      <point x="36.0" y="268.0" type="curve" smooth="yes"/>
      <point x="36.0" y="101.0"/>
      <point x="117.0" y="-10.0"/>
    </contour>
    <contour>
      <point x="311.0" y="161.0" type="curve" smooth="yes"/>
      <point x="264.0" y="161.0"/>
      <point x="232.0" y="206.0"/>
      <point x="231.0" y="273.0" type="curve"/>
      <point x="232.0" y="339.0"/>
      <point x="264.0" y="384.0"/>
      <point x="311.0" y="385.0" type="curve" smooth="yes"/>
      <point x="357.0" y="386.0"/>
      <point x="387.0" y="353.0"/>
      <point x="387.0" y="303.0" type="curve" smooth="yes"/>
      <point x="387.0" y="257.0" type="line" smooth="yes"/>
      <point x="387.0" y="199.0"/>
      <point x="357.0" y="161.0"/>
    </contour>
  </outline>
</glyph>
<glyph name="beta" format="2">
  <advance height="1000" width="648"/>
  <unicode hex="03B2"/>
  <outline>
    <contour>
      <point x="61.0" y="-189.0" type="curve"/>
      <point x="242.0" y="-189.0" type="line"/>
      <point x="234.0" y="-153.0"/>
      <point x="229.0" y="-104.0"/>
      <point x="229.0" y="-46.0" type="curve" smooth="yes"/>
      <point x="229.0" y="494.0" type="line" smooth="yes"/>
      <point x="229.0" y="559.0"/>
      <point x="268.0" y="601.0"/>
      <point x="329.0" y="601.0" type="curve" smooth="yes"/>
      <point x="382.0" y="601.0"/>
      <point x="409.0" y="568.0"/>
      <point x="410.0" y="519.0" type="curve" smooth="yes"/>
      <point x="410.0" y="469.0"/>
      <point x="367.0" y="433.0"/>
      <point x="301.0" y="429.0" type="curve"/>
      <point x="301.0" y="297.0" type="line"/>
      <point x="393.0" y="282.0"/>
      <point x="429.0" y="251.0"/>
      <point x="429.0" y="206.0" type="curve" smooth="yes"/>
      <point x="429.0" y="164.0"/>
      <point x="395.0" y="137.0"/>
      <point x="338.0" y="137.0" type="curve" smooth="yes"/>
      <point x="293.0" y="137.0"/>
      <point x="257.0" y="149.0"/>
      <point x="220.0" y="176.0" type="curve"/>
      <point x="220.0" y="7.0" type="line"/>
      <point x="260.0" y="-7.0"/>
      <point x="299.0" y="-16.0"/>
      <point x="347.0" y="-16.0" type="curve" smooth="yes"/>
      <point x="507.0" y="-16.0"/>
      <point x="612.0" y="73.0"/>
      <point x="612.0" y="212.0" type="curve" smooth="yes"/>
      <point x="612.0" y="301.0"/>
      <point x="561.0" y="368.0"/>
      <point x="454.0" y="396.0" type="curve"/>
      <point x="454.0" y="369.0" type="line"/>
      <point x="536.0" y="380.0"/>
      <point x="590.0" y="452.0"/>
      <point x="590.0" y="531.0" type="curve" smooth="yes"/>
      <point x="590.0" y="676.0"/>
      <point x="484.0" y="756.0"/>
      <point x="334.0" y="756.0" type="curve" smooth="yes"/>
      <point x="162.0" y="756.0"/>
      <point x="48.0" y="652.0"/>
      <point x="48.0" y="485.0" type="curve" smooth="yes"/>
      <point x="48.0" y="-46.0" type="line" smooth="yes"/>
      <point x="48.0" y="-104.0"/>
      <point x="54.0" y="-153.0"/>
    </contour>
  </outline>
</glyph>
<glyph name="delta" format="2">
  <advance height="1000" width="610"/>
  <unicode hex="03B4"/>
  <outline>
    <contour>
      <point x="300" y="-12" type="curve" smooth="yes"/>
      <point x="455" y="-12"/>
      <point x="574" y="86"/>
      <point x="574" y="247" type="curve" smooth="yes"/>
      <point x="574.0" y="373.0"/>
      <point x="489" y="480"/>
      <point x="338" y="518" type="curve" smooth="yes"/>
      <point x="330" y="520" type="line" smooth="yes"/>
      <point x="277" y="533"/>
      <point x="263" y="547"/>
      <point x="263" y="566" type="curve" smooth="yes"/>
      <point x="263" y="590"/>
      <point x="287" y="600"/>
      <point x="321" y="600" type="curve" smooth="yes"/>
      <point x="364" y="600"/>
      <point x="423" y="587"/>
      <point x="490" y="558" type="curve"/>
      <point x="490" y="724" type="line"/>
      <point x="430" y="740"/>
      <point x="378" y="752"/>
      <point x="322" y="752" type="curve" smooth="yes"/>
      <point x="175" y="752"/>
      <point x="76" y="688"/>
      <point x="76" y="562" type="curve" smooth="yes"/>
      <point x="76" y="478"/>
      <point x="124" y="395"/>
      <point x="276" y="357" type="curve" smooth="yes"/>
      <point x="284" y="355" type="line" smooth="yes"/>
      <point x="350" y="338"/>
      <point x="388" y="292"/>
      <point x="387" y="231" type="curve" smooth="yes"/>
      <point x="386" y="178"/>
      <point x="355" y="141"/>
      <point x="300" y="141" type="curve" smooth="yes"/>
      <point x="251" y="141"/>
      <point x="223" y="183"/>
      <point x="223" y="233" type="curve" smooth="yes"/>
      <point x="223" y="299"/>
      <point x="251" y="332"/>
      <point x="304" y="358" type="curve"/>
      <point x="287" y="470" type="line"/>
      <point x="126" y="424"/>
      <point x="36" y="351"/>
      <point x="36" y="218" type="curve" smooth="yes"/>
      <point x="36" y="80"/>
      <point x="155" y="-12"/>
    </contour>
  </outline>
</glyph>
<glyph name="epsilon" format="2">
  <advance height="1000" width="502"/>
  <unicode hex="03B5"/>
  <outline>
    <contour>
      <point x="280.0" y="-12.0" type="curve" smooth="yes"/>
      <point x="342.0" y="-12.0"/>
      <point x="411.0" y="0.0"/>
      <point x="466.0" y="22.0" type="curve"/>
      <point x="466.0" y="179.0" type="line"/>
      <point x="415.0" y="157.0"/>
      <point x="357.0" y="142.0"/>
      <point x="312.0" y="142.0" type="curve" smooth="yes"/>
      <point x="260.0" y="142.0"/>
      <point x="233.0" y="158.0"/>
      <point x="233.0" y="181.0" type="curve" smooth="yes"/>
      <point x="233.0" y="205.0"/>
      <point x="265.0" y="221.0"/>
      <point x="326.0" y="221.0" type="curve" smooth="yes"/>
      <point x="359.0" y="221.0" type="line"/>
      <point x="359.0" y="328.0" type="line"/>
      <point x="326.0" y="328.0" type="line" smooth="yes"/>
      <point x="271.0" y="328.0"/>
      <point x="242.0" y="343.0"/>
      <point x="242.0" y="365.0" type="curve" smooth="yes"/>
      <point x="242.0" y="388.0"/>
      <point x="269.0" y="403.0"/>
      <point x="321.0" y="403.0" type="curve" smooth="yes"/>
      <point x="364.0" y="403.0"/>
      <point x="417.0" y="394.0"/>
      <point x="462.0" y="381.0" type="curve"/>
      <point x="462.0" y="527.0" type="line"/>
      <point x="400.0" y="541.0"/>
      <point x="336.0" y="548.0"/>
      <point x="288.0" y="548.0" type="curve" smooth="yes"/>
      <point x="142.0" y="548.0"/>
      <point x="45.0" y="496.0"/>
      <point x="45.0" y="395.0" type="curve" smooth="yes"/>
      <point x="45.0" y="335.0"/>
      <point x="86.0" y="292.0"/>
      <point x="148.0" y="274.0" type="curve"/>
      <point x="81.0" y="259.0"/>
      <point x="36.0" y="212.0"/>
      <point x="36.0" y="142.0" type="curve" smooth="yes"/>
      <point x="36.0" y="40.0"/>
      <point x="134.0" y="-12.0"/>
    </contour>
  </outline>
</glyph>
<glyph name="eta" format="2">
  <advance height="1000" width="604"/>
  <unicode hex="03B7"/>
  <outline>
    <contour>
      <point x="48.0" y="0.0" type="line"/>
      <point x="238.0" y="0.0" type="line"/>
      <point x="238.0" y="345.0" type="line"/>
      <point x="256.0" y="371.0"/>
      <point x="280.0" y="383.0"/>
      <point x="308.0" y="383.0" type="curve" smooth="yes"/>
      <point x="345.0" y="383.0"/>
      <point x="368.0" y="361.0"/>
      <point x="368.0" y="317.0" type="curve" smooth="yes"/>
      <point x="368.0" y="-36.0" type="line" smooth="yes"/>
      <point x="368.0" y="-83.0"/>
      <point x="377.0" y="-147.0"/>
      <point x="390.0" y="-189.0" type="curve"/>
      <point x="580.0" y="-189.0" type="line"/>
      <point x="565.0" y="-141.0"/>
      <point x="558.0" y="-76.0"/>
      <point x="558.0" y="-36.0" type="curve" smooth="yes"/>
      <point x="558.0" y="360.0" type="line" smooth="yes"/>
      <point x="558.0" y="479.0"/>
      <point x="490.0" y="548.0"/>
      <point x="390.0" y="548.0" type="curve" smooth="yes"/>
      <point x="323.0" y="548.0"/>
      <point x="272.0" y="517.0"/>
      <point x="238.0" y="466.0" type="curve"/>
      <point x="238.0" y="536.0" type="line"/>
      <point x="48.0" y="536.0" type="line"/>
    </contour>
  </outline>
</glyph>
<glyph name="theta" format="2">
  <advance height="1000" width="679"/>
  <unicode hex="03B8"/>
  <outline>
    <contour>
      <point x="338.0" y="-12.0" type="curve" smooth="yes"/>
      <point x="521.0" y="-12.0"/>
      <point x="643.0" y="137.0"/>
      <point x="643.0" y="367.0" type="curve" smooth="yes"/>
      <point x="643.0" y="597.0"/>
      <point x="521.0" y="752.0"/>
      <point x="338.0" y="752.0" type="curve" smooth="yes"/>
      <point x="157.0" y="752.0"/>
      <point x="36.0" y="601.0"/>
      <point x="36.0" y="370.0" type="curve" smooth="yes"/>
      <point x="36.0" y="140.0"/>
      <point x="157.0" y="-12.0"/>
    </contour>
    <contour>
      <point x="338.0" y="142.0" type="curve" smooth="yes"/>
      <point x="269.0" y="142.0"/>
      <point x="225.0" y="222.0"/>
      <point x="225.0" y="367.0" type="curve" smooth="yes"/>
      <point x="225.0" y="511.0"/>
      <point x="269.0" y="599.0"/>
      <point x="338.0" y="599.0" type="curve" smooth="yes"/>
      <point x="409.0" y="599.0"/>
      <point x="453.0" y="510.0"/>
      <point x="453.0" y="364.0" type="curve" smooth="yes"/>
      <point x="453.0" y="221.0"/>
      <point x="409.0" y="142.0"/>
    </contour>
    <contour>
      <point x="78.0" y="291.0" type="line"/>
      <point x="594.0" y="291.0" type="line"/>
      <point x="594.0" y="435.0" type="line"/>
      <point x="78.0" y="435.0" type="line"/>
    </contour>
  </outline>
</glyph>
<glyph name="iota" format="2">
  <advance height="1000" width="321"/>
  <unicode hex="03B9"/>
  <outline>
    <contour>
      <point x="182.0" y="-10.0" type="curve" smooth="yes"/>
      <point x="218.0" y="-10.0"/>
      <point x="264.0" y="-2.0"/>
      <point x="297.0" y="10.0" type="curve"/>
      <point x="297.0" y="160.0" type="line"/>
      <point x="291.0" y="156.0"/>
      <point x="281.0" y="153.0"/>
      <point x="269.0" y="153.0" type="curve" smooth="yes"/>
      <point x="249.0" y="153.0"/>
      <point x="238.0" y="167.0"/>
      <point x="238.0" y="190.0" type="curve" smooth="yes"/>
      <point x="238.0" y="536.0" type="line"/>
      <point x="48.0" y="536.0" type="line"/>
      <point x="48.0" y="140.0" type="line" smooth="yes"/>
      <point x="48.0" y="41.0"/>
      <point x="94.0" y="-10.0"/>
    </contour>
  </outline>
</glyph>
<glyph name="lambda" format="2">
  <advance height="1000" width="645"/>
  <unicode hex="03BB"/>
  <outline>
    <contour>
      <point x="20.0" y="0.0" type="line"/>
      <point x="218.0" y="0.0" type="line"/>
      <point x="317.0" y="276.0" type="line"/>
      <point x="416.0" y="0.0" type="line"/>
      <point x="625.0" y="0.0" type="line"/>
      <point x="346.0" y="618.0" type="line" smooth="yes"/>
      <point x="306.0" y="707.0"/>
      <point x="230.0" y="754.0"/>
      <point x="124.0" y="754.0" type="curve" smooth="yes"/>
      <point x="88.0" y="754.0"/>
      <point x="45.0" y="744.0"/>
      <point x="28.0" y="740.0" type="curve"/>
      <point x="28.0" y="593.0" type="line"/>
      <point x="39.0" y="600.0"/>
      <point x="67.0" y="606.0"/>
      <point x="89.0" y="606.0" type="curve" smooth="yes"/>
      <point x="126.0" y="606.0"/>
      <point x="163.0" y="589.0"/>
      <point x="183.0" y="547.0" type="curve" smooth="yes"/>
      <point x="217.0" y="475.0" type="line"/>
    </contour>
  </outline>
</glyph>
<glyph name="nu" format="2">
  <advance height="1000" width="581"/>
  <unicode hex="03BD"/>
  <outline>
    <contour>
      <point x="184.0" y="0.0" type="line"/>
      <point x="418.0" y="0.0" type="line"/>
      <point x="526.0" y="326.0" type="line" smooth="yes"/>
      <point x="548.0" y="395.0"/>
      <point x="573.0" y="461.0"/>
      <point x="573.0" y="537.0" type="curve"/>
      <point x="386.0" y="537.0" type="line"/>
      <point x="386.0" y="478.0"/>
      <point x="374.0" y="417.0"/>
      <point x="359.0" y="362.0" type="curve" smooth="yes"/>
      <point x="311.0" y="186.0" type="line"/>
      <point x="213.0" y="537.0" type="line"/>
      <point x="8.0" y="537.0" type="line"/>
    </contour>
  </outline>
</glyph>
<glyph name="xi" format="2">
  <advance height="1000" width="489"/>
  <unicode hex="03BE"/>
  <outline>
    <contour>
      <point x="303.0" y="-191.0" type="curve"/>
      <point x="467.0" y="-191.0" type="line"/>
      <point x="474.0" y="-166.0"/>
      <point x="481.0" y="-135.0"/>
      <point x="481.0" y="-102.0" type="curve" smooth="yes"/>
      <point x="481.0" y="8.0"/>
      <point x="441.0" y="64.0"/>
      <point x="337.0" y="91.0" type="curve" smooth="yes"/>
      <point x="310.0" y="98.0" type="line" smooth="yes"/>
      <point x="253.0" y="113.0"/>
      <point x="230.0" y="132.0"/>
      <point x="230.0" y="163.0" type="curve" smooth="yes"/>
      <point x="230.0" y="207.0"/>
      <point x="268.0" y="228.0"/>
      <point x="342.0" y="228.0" type="curve" smooth="yes"/>
      <point x="406.0" y="228.0" type="line"/>
      <point x="406.0" y="383.0" type="line"/>
      <point x="348.0" y="383.0" type="line" smooth="yes"/>
      <point x="293.0" y="383.0"/>
      <point x="265.0" y="408.0"/>
      <point x="265.0" y="447.0" type="curve" smooth="yes"/>
      <point x="265.0" y="502.0"/>
      <point x="311.6364975838895" y="547.4091243959724"/>
      <point x="454.0" y="583.0" type="curve"/>
      <point x="454.0" y="740.0" type="line"/>
      <point x="42.0" y="740.0" type="line"/>
      <point x="42.0" y="572.0" type="line"/>
      <point x="181.0" y="572.0" type="line"/>
      <point x="111.0" y="526.0"/>
      <point x="70.0" y="469.0"/>
      <point x="71.0" y="410.0" type="curve" smooth="yes"/>
      <point x="72.0" y="365.0"/>
      <point x="101.0" y="325.0"/>
      <point x="149.0" y="302.0" type="curve"/>
      <point x="76.0" y="264.0"/>
      <point x="32.0" y="199.0"/>
      <point x="32.0" y="115.0" type="curve" smooth="yes"/>
      <point x="32.0" y="16.0"/>
      <point x="96.0" y="-36.0"/>
      <point x="220.0" y="-58.0" type="curve" smooth="yes"/>
      <point x="248.0" y="-63.0" type="line" smooth="yes"/>
      <point x="295.0" y="-71.0"/>
      <point x="314.0" y="-93.0"/>
      <point x="314.0" y="-126.0" type="curve" smooth="yes"/>
      <point x="314.0" y="-158.0"/>
      <point x="309.0" y="-175.0"/>
    </contour>
  </outline>
</glyph>
<glyph name="pi" format="2">
  <advance height="1000" width="646"/>
  <unicode hex="03C0"/>
  <outline>
    <contour>
      <point x="88" y="0" type="line"/>
      <point x="278" y="0" type="line"/>
      <point x="278" y="384" type="line"/>
      <point x="368" y="384" type="line"/>
      <point x="368" y="0" type="line"/>
      <point x="558" y="0" type="line"/>
      <point x="558" y="384" type="line"/>
      <point x="622" y="384" type="line"/>
      <point x="622" y="536" type="line"/>
      <point x="24" y="536" type="line"/>
      <point x="24" y="384" type="line"/>
      <point x="88" y="384" type="line"/>
    </contour>
  </outline>
</glyph>
<glyph name="sigma" format="2">
  <advance height="1000" width="684"/>
  <unicode hex="03C3"/>
  <outline>
    <contour>
      <point x="312.0" y="151.0" type="curve" smooth="yes"/>
      <point x="262.0" y="151.0"/>
      <point x="228.0" y="196.0"/>
      <point x="228.0" y="264.0" type="curve" smooth="yes"/>
      <point x="228.0" y="331.0"/>
      <point x="262.0" y="376.0"/>
      <point x="312.0" y="376.0" type="curve" smooth="yes"/>
      <point x="362.0" y="376.0"/>
      <point x="396.0" y="331.0"/>
      <point x="396.0" y="264.0" type="curve" smooth="yes"/>
      <point x="396.0" y="196.0"/>
      <point x="362.0" y="151.0"/>
    </contour>
    <contour>
      <point x="312.0" y="-12.0" type="curve" smooth="yes"/>
      <point x="479.0" y="-12.0"/>
      <point x="590.0" y="91.0"/>
      <point x="590.0" y="246.0" type="curve" smooth="yes"/>
      <point x="590.0" y="295.0"/>
      <point x="570.0" y="351.0"/>
      <point x="539.0" y="386.0" type="curve"/>
      <point x="656.0" y="386.0" type="line"/>
      <point x="656.0" y="536.0" type="line"/>
      <point x="334.0" y="536.0" type="line" smooth="yes"/>
      <point x="155.0" y="536.0"/>
      <point x="36.0" y="428.0"/>
      <point x="36.0" y="265.0" type="curve" smooth="yes"/>
      <point x="36.0" y="99.0"/>
      <point x="146.0" y="-12.0"/>
    </contour>
  </outline>
</glyph>
<glyph name="tau" format="2">
  <advance height="1000" width="437"/>
  <unicode hex="03C4"/>
  <outline>
    <contour>
      <point x="251.0" y="-8.0" type="curve" smooth="yes"/>
      <point x="294.0" y="-8.0"/>
      <point x="340.0" y="-1.0"/>
      <point x="381.0" y="16.0" type="curve"/>
      <point x="381.0" y="178.0" type="line"/>
      <point x="364.0" y="167.0"/>
      <point x="349.0" y="162.0"/>
      <point x="331.0" y="162.0" type="curve" smooth="yes"/>
      <point x="303.0" y="162.0"/>
      <point x="283.0" y="182.0"/>
      <point x="283.0" y="215.0" type="curve" smooth="yes"/>
      <point x="283.0" y="376.0" type="line"/>
      <point x="377.0" y="376.0" type="line"/>
      <point x="377.0" y="536.0" type="line"/>
      <point x="28.0" y="536.0" type="line"/>
      <point x="28.0" y="376.0" type="line"/>
      <point x="93.0" y="376.0" type="line"/>
      <point x="93.0" y="157.0" type="line" smooth="yes"/>
      <point x="93.0" y="54.0"/>
      <point x="152.0" y="-8.0"/>
    </contour>
  </outline>
</glyph>
<glyph name="upsilon" format="2">
  <advance height="1000" width="583"/>
  <unicode hex="03C5"/>
  <outline>
    <contour>
      <point x="274.0" y="-8.0" type="curve" smooth="yes"/>
      <point x="437.0" y="-8.0"/>
      <point x="547.0" y="109.0"/>
      <point x="547.0" y="294.0" type="curve" smooth="yes"/>
      <point x="547.0" y="387.0"/>
      <point x="538.0" y="476.1515151515151"/>
      <point x="521.0" y="525.0" type="curve"/>
      <point x="330.0" y="525.0" type="line"/>
      <point x="348.0" y="474.2851711026616"/>
      <point x="357.0" y="386.0"/>
      <point x="357.0" y="295.0" type="curve" smooth="yes"/>
      <point x="357.0" y="205.0"/>
      <point x="326.0" y="154.0"/>
      <point x="282.0" y="154.0" type="curve" smooth="yes"/>
      <point x="246.0" y="154.0"/>
      <point x="227.0" y="180.0"/>
      <point x="227.0" y="219.0" type="curve" smooth="yes"/>
      <point x="227.0" y="525.0" type="line"/>
      <point x="36.0" y="525.0" type="line"/>
      <point x="36.0" y="210.0" type="line" smooth="yes"/>
      <point x="36.0" y="65.0"/>
      <point x="131.0" y="-8.0"/>
    </contour>
  </outline>
</glyph>
<glyph name="phi" format="2">
  <advance height="1000" width="854"/>
  <unicode hex="03C6"/>
  <outline>
    <contour>
      <point x="330.0" y="-189.0" type="line"/>
      <point x="521.0" y="-189.0" type="line"/>
      <point x="521.0" y="740.0" type="line"/>
      <point x="330.0" y="740.0" type="line"/>
    </contour>
    <contour>
      <point x="424.0" y="-12.0" type="curve" smooth="yes"/>
      <point x="684.0" y="-12.0"/>
      <point x="818.0" y="101.0"/>
      <point x="818.0" y="270.0" type="curve" smooth="yes"/>
      <point x="818.0" y="437.0"/>
      <point x="684.0" y="548.0"/>
      <point x="424.0" y="548.0" type="curve" smooth="yes"/>
      <point x="168.0" y="548.0"/>
      <point x="36.0" y="436.0"/>
      <point x="36.0" y="267.0" type="curve" smooth="yes"/>
      <point x="36.0" y="100.0"/>
      <point x="168.0" y="-12.0"/>
    </contour>
    <contour>
      <point x="424.0" y="152.0" type="curve" smooth="yes"/>
      <point x="294.0" y="152.0"/>
      <point x="227.0" y="192.0"/>
      <point x="227.0" y="269.0" type="curve" smooth="yes"/>
      <point x="227.0" y="346.0"/>
      <point x="294.0" y="385.0"/>
      <point x="424.0" y="385.0" type="curve" smooth="yes"/>
      <point x="557.0" y="385.0"/>
      <point x="625.0" y="346.0"/>
      <point x="626.0" y="269.0" type="curve" smooth="yes"/>
      <point x="627.0" y="192.0"/>
      <point x="557.0" y="152.0"/>
    </contour>
  </outline>
</glyph>
<glyph name="omega" format="2">
  <advance height="1000" width="873"/>
  <unicode hex="03C9"/>
  <outline>
    <contour>
      <point x="282.0" y="-8.0" type="curve" smooth="yes"/>
      <point x="363.0" y="-9.0"/>
      <point x="412.0" y="29.0"/>
      <point x="447.0" y="103.0" type="curve"/>
      <point x="481.0" y="27.0"/>
      <point x="532.0" y="-8.0"/>
      <point x="614.0" y="-8.0" type="curve" smooth="yes"/>
      <point x="743.0" y="-8.0"/>
      <point x="825.0" y="79.0"/>
      <point x="825.0" y="263.0" type="curve" smooth="yes"/>
      <point x="825.0" y="355.0"/>
      <point x="820.0" y="445.0"/>
      <point x="805.0" y="536.0" type="curve"/>
      <point x="606.0" y="536.0" type="line"/>
      <point x="620.0" y="453.0"/>
      <point x="628.0" y="376.0"/>
      <point x="628.0" y="296.0" type="curve" smooth="yes"/>
      <point x="628.0" y="207.0"/>
      <point x="613.0" y="169.0"/>
      <point x="581.0" y="169.0" type="curve" smooth="yes"/>
      <point x="550.0" y="169.0"/>
      <point x="534.0" y="211.0"/>
      <point x="534.0" y="310.0" type="curve" smooth="yes"/>
      <point x="534.0" y="536.0" type="line"/>
      <point x="338.0" y="536.0" type="line"/>
      <point x="338.0" y="310.0" type="line" smooth="yes"/>
      <point x="338.0" y="211.0"/>
      <point x="322.0" y="169.0"/>
      <point x="291.0" y="169.0" type="curve" smooth="yes"/>
      <point x="259.0" y="169.0"/>
      <point x="244.0" y="210.0"/>
      <point x="244.0" y="305.0" type="curve" smooth="yes"/>
      <point x="245.0" y="383.0"/>
      <point x="254.0" y="455.0"/>
      <point x="266.0" y="536.0" type="curve"/>
      <point x="70.0" y="536.0" type="line"/>
      <point x="56.0" y="448.0"/>
      <point x="48.0" y="369.0"/>
      <point x="48.0" y="282.0" type="curve" smooth="yes"/>
      <point x="48.0" y="96.0"/>
      <point x="137.0" y="-9.0"/>
    </contour>
  </outline>
</glyph>
<glyph name="iotadieresis" format="2">
  <advance height="1000" width="290"/>
  <unicode hex="03CA"/>
  <outline>
    <contour>
      <point x="158.0" y="-10.0" type="curve" smooth="yes"/>
      <point x="194.0" y="-10.0"/>
      <point x="240.0" y="-2.0"/>
      <point x="273.0" y="10.0" type="curve"/>
      <point x="273.0" y="160.0" type="line"/>
      <point x="267.0" y="156.0"/>
      <point x="257.0" y="153.0"/>
      <point x="245.0" y="153.0" type="curve" smooth="yes"/>
      <point x="225.0" y="153.0"/>
      <point x="214.0" y="167.0"/>
      <point x="214.0" y="190.0" type="curve" smooth="yes"/>
      <point x="214.0" y="536.0" type="line"/>
      <point x="24.0" y="536.0" type="line"/>
      <point x="24.0" y="140.0" type="line" smooth="yes"/>
      <point x="24.0" y="41.0"/>
      <point x="70.0" y="-10.0"/>
    </contour>
    <contour>
      <point x="-31" y="600" type="line"/>
      <point x="101" y="600" type="line"/>
      <point x="101" y="732" type="line"/>
      <point x="-31" y="732" type="line"/>
    </contour>
    <contour>
      <point x="161" y="600" type="line"/>
      <point x="293" y="600" type="line"/>
      <point x="293" y="732" type="line"/>
      <point x="161" y="732" type="line"/>
    </contour>
  </outline>
</glyph>
<glyph name="upsilontonos" format="2">
  <advance height="1000" width="613"/>
  <unicode hex="03CD"/>
  <outline>
    <contour>
      <point x="287.0" y="-8.0" type="curve" smooth="yes"/>
      <point x="450.0" y="-8.0"/>
      <point x="560.0" y="109.0"/>
      <point x="560.0" y="294.0" type="curve" smooth="yes"/>
      <point x="560.0" y="387.0"/>
      <point x="551.0" y="476.1515151515151"/>
      <point x="534.0" y="525.0" type="curve"/>
      <point x="343.0" y="525.0" type="line"/>
      <point x="361.0" y="474.2851711026616"/>
      <point x="370.0" y="386.0"/>
      <point x="370.0" y="295.0" type="curve" smooth="yes"/>
      <point x="370.0" y="205.0"/>
      <point x="339.0" y="154.0"/>
      <point x="295.0" y="154.0" type="curve" smooth="yes"/>
      <point x="259.0" y="154.0"/>
      <point x="240.0" y="180.0"/>
      <point x="240.0" y="219.0" type="curve" smooth="yes"/>
      <point x="240.0" y="525.0" type="line"/>
      <point x="49.0" y="525.0" type="line"/>
      <point x="49.0" y="210.0" type="line" smooth="yes"/>
      <point x="49.0" y="65.0"/>
      <point x="144.0" y="-8.0"/>
    </contour>
    <contour>
      <point x="228" y="592" type="line"/>
      <point x="372" y="592" type="line"/>
      <point x="427" y="800" type="line"/>
      <point x="275" y="800" type="line"/>
    </contour>
  </outline>
</glyph>
<glyph name="IEgravecyrillic" format="2">
  <advance height="1000" width="597"/>
  <unicode hex="0400"/>
  <outline>
    <contour>
      <point x="64" y="0" type="line"/>
      <point x="541" y="0" type="line"/>
      <point x="541" y="178" type="line"/>
      <point x="264" y="178" type="line"/>
      <point x="264" y="294" type="line"/>
      <point x="516" y="294" type="line"/>
      <point x="516" y="452" type="line"/>
      <point x="264" y="452" type="line"/>
      <point x="264" y="562" type="line"/>
      <point x="531" y="562" type="line"/>
      <point x="531" y="740" type="line"/>
      <point x="64" y="740" type="line"/>
    </contour>
    <contour>
      <point x="255" y="787" type="line"/>
      <point x="400" y="787" type="line"/>
      <point x="299" y="943" type="line"/>
      <point x="133" y="943" type="line"/>
    </contour>
  </outline>
</glyph>
<glyph name="Djecyrillic" format="2">
  <advance height="1000" width="886"/>
  <unicode hex="0402"/>
  <outline>
    <contour>
      <point x="224" y="0" type="line"/>
      <point x="424" y="0" type="line"/>
      <point x="424" y="271" type="line"/>
      <point x="450" y="281"/>
      <point x="488" y="287"/>
      <point x="524" y="287" type="curve" smooth="yes"/>
      <point x="606" y="287"/>
      <point x="650" y="247"/>
      <point x="650" y="149" type="curve" smooth="yes"/>
      <point x="650" y="49"/>
      <point x="608" y="12"/>
      <point x="548" y="12" type="curve" smooth="yes"/>
      <point x="528" y="12"/>
      <point x="512" y="14"/>
      <point x="498" y="18" type="curve"/>
      <point x="498" y="-152" type="line"/>
      <point x="518" y="-158"/>
      <point x="548" y="-162"/>
      <point x="586" y="-162" type="curve" smooth="yes"/>
      <point x="736" y="-162"/>
      <point x="850" y="-49"/>
      <point x="850" y="153" type="curve" smooth="yes"/>
      <point x="850" y="363"/>
      <point x="741" y="464"/>
      <point x="559" y="464" type="curve" smooth="yes"/>
      <point x="507" y="464"/>
      <point x="458" y="456"/>
      <point x="424" y="444" type="curve"/>
      <point x="424" y="560" type="line"/>
      <point x="638" y="560" type="line"/>
      <point x="638" y="740" type="line"/>
      <point x="24" y="740" type="line"/>
      <point x="24" y="560" type="line"/>
      <point x="224" y="560" type="line"/>
    </contour>
  </outline>
</glyph>
<glyph name="Icyrillic" format="2">
  <advance height="1000" width="328"/>
  <unicode hex="0406"/>
  <outline>
    <contour>
      <point x="64" y="0" type="line"/>
      <point x="264" y="0" type="line"/>
      <point x="264" y="740" type="line"/>
      <point x="64" y="740" type="line"/>
    </contour>
  </outline>
</glyph>
<glyph name="Njecyrillic" format="2">
  <advance height="1000" width="1123"/>
  <unicode hex="040A"/>
  <outline>
    <contour>
      <point x="512" y="0" type="line"/>
      <point x="797" y="0" type="line" smooth="yes"/>
      <point x="975" y="0"/>
      <point x="1091" y="101"/>
      <point x="1091" y="264" type="curve" smooth="yes"/>
      <point x="1091" y="427"/>
      <point x="976" y="517"/>
      <point x="797" y="517" type="curve" smooth="yes"/>
      <point x="712" y="517" type="line"/>
      <point x="712" y="740" type="line"/>
      <point x="512" y="740" type="line"/>
      <point x="512" y="462" type="line"/>
      <point x="264" y="462" type="line"/>
      <point x="264" y="740" type="line"/>
      <point x="64" y="740" type="line"/>
      <point x="64" y="0" type="line"/>
      <point x="264" y="0" type="line"/>
      <point x="264" y="282" type="line"/>
      <point x="512" y="282" type="line"/>
    </contour>
    <contour>
      <point x="712" y="351" type="line"/>
      <point x="787" y="351" type="line" smooth="yes"/>
      <point x="846" y="351"/>
      <point x="889" y="319"/>
      <point x="889" y="258" type="curve" smooth="yes"/>
      <point x="889" y="198"/>
      <point x="846" y="166"/>
      <point x="787" y="166" type="curve" smooth="yes"/>
      <point x="712" y="166" type="line"/>
    </contour>
  </outline>
</glyph>
<glyph name="Tshecyrillic" format="2">
  <advance height="1000" width="898"/>
  <unicode hex="040B"/>
  <outline>
    <contour>
      <point x="638" y="740" type="line"/>
      <point x="24" y="740" type="line"/>
      <point x="24" y="560" type="line"/>
      <point x="224" y="560" type="line"/>
      <point x="224" y="0" type="line"/>
      <point x="424" y="0" type="line"/>
      <point x="424" y="267" type="line"/>
      <point x="446" y="277"/>
      <point x="494" y="287"/>
      <point x="536" y="287" type="curve" smooth="yes"/>
      <point x="620" y="287"/>
      <point x="650" y="263"/>
      <point x="650" y="187" type="curve" smooth="yes"/>
      <point x="650" y="0" type="line"/>
      <point x="850" y="0" type="line"/>
      <point x="850" y="211" type="line" smooth="yes"/>
      <point x="850" y="389"/>
      <point x="762" y="464"/>
      <point x="588" y="464" type="curve" smooth="yes"/>
      <point x="530" y="464"/>
      <point x="466" y="454"/>
      <point x="424" y="438" type="curve"/>
      <point x="424" y="560" type="line"/>
      <point x="638" y="560" type="line"/>
    </contour>
  </outline>
</glyph>
<glyph name="Kjecyrillic" format="2">
  <advance height="1000" width="773"/>
  <unicode hex="040C"/>
  <outline>
    <contour>
      <point x="64" y="0" type="line"/>
      <point x="264" y="0" type="line"/>
      <point x="264" y="290" type="line"/>
      <point x="320" y="290" type="line"/>
      <point x="514" y="0" type="line"/>
      <point x="761" y="0" type="line"/>
      <point x="482" y="393" type="line"/>
      <point x="735" y="740" type="line"/>
      <point x="508" y="740" type="line"/>
      <point x="320" y="466" type="line"/>
      <point x="264" y="466" type="line"/>
      <point x="264" y="740" type="line"/>
      <point x="64" y="740" type="line"/>
    </contour>
    <contour>
      <point x="454" y="787" type="line"/>
      <point x="576" y="943" type="line"/>
      <point x="410" y="943" type="line"/>
      <point x="309" y="787" type="line"/>
    </contour>
  </outline>
</glyph>
<glyph name="Dzhecyrillic" format="2">
  <advance height="1000" width="768"/>
  <unicode hex="040F"/>
  <outline>
    <contour>
      <point x="64" y="0" type="line"/>
      <point x="290" y="0" type="line"/>
      <point x="290" y="-133" type="line"/>
      <point x="478" y="-133" type="line"/>
      <point x="478" y="0" type="line"/>
      <point x="704" y="0" type="line"/>
      <point x="704" y="740" type="line"/>
      <point x="504" y="740" type="line"/>
      <point x="504" y="180" type="line"/>
      <point x="264" y="180" type="line"/>
      <point x="264" y="740" type="line"/>
      <point x="64" y="740" type="line"/>
    </contour>
  </outline>
</glyph>
<glyph name="Acyrillic" format="2">
  <advance height="1000" width="817"/>
  <unicode hex="0410"/>
  <outline>
    <contour>
      <point x="584" y="0" type="line"/>
      <point x="801" y="0" type="line"/>
      <point x="507" y="740" type="line"/>
      <point x="312" y="740" type="line"/>
      <point x="16" y="0" type="line"/>
      <point x="210" y="0" type="line"/>
      <point x="397" y="513" type="line"/>
    </contour>
    <contour>
      <point x="166" y="131" type="line"/>
      <point x="626" y="131" type="line"/>
      <point x="626" y="289" type="line"/>
      <point x="166" y="289" type="line"/>
    </contour>
  </outline>
</glyph>
<glyph name="Becyrillic" format="2">
  <advance height="1000" width="664"/>
  <unicode hex="0411"/>
  <outline>
    <contour>
      <point x="64" y="0" type="line"/>
      <point x="369" y="0" type="line" smooth="yes"/>
      <point x="526" y="0"/>
      <point x="628" y="89"/>
      <point x="628" y="233" type="curve" smooth="yes"/>
      <point x="628" y="377"/>
      <point x="526" y="456"/>
      <point x="369" y="456" type="curve" smooth="yes"/>
      <point x="262" y="456" type="line"/>
      <point x="262" y="560" type="line"/>
      <point x="556" y="560" type="line"/>
      <point x="556" y="740" type="line"/>
      <point x="64" y="740" type="line"/>
    </contour>
    <contour>
      <point x="262" y="306" type="line"/>
      <point x="339" y="306" type="line" smooth="yes"/>
      <point x="391" y="306"/>
      <point x="428" y="281"/>
      <point x="428" y="228" type="curve" smooth="yes"/>
      <point x="428" y="175"/>
      <point x="391" y="150"/>
      <point x="339" y="150" type="curve" smooth="yes"/>
      <point x="262" y="150" type="line"/>
    </contour>
  </outline>
</glyph>
<glyph name="Gecyrillic" format="2">
  <advance height="1000" width="550"/>
  <unicode hex="0413"/>
  <outline>
    <contour>
      <point x="64" y="0" type="line"/>
      <point x="264" y="0" type="line"/>
      <point x="264" y="560" type="line"/>
      <point x="526" y="560" type="line"/>
      <point x="526" y="740" type="line"/>
      <point x="64" y="740" type="line"/>
    </contour>
  </outline>
</glyph>
<glyph name="Decyrillic" format="2">
  <advance height="1000" width="889"/>
  <unicode hex="0414"/>
  <outline>
    <contour>
      <point x="747" y="740" type="line"/>
      <point x="182" y="740" type="line"/>
      <point x="182" y="591" type="line" smooth="yes"/>
      <point x="182" y="363"/>
      <point x="147" y="250"/>
      <point x="95" y="180" type="curve"/>
      <point x="22" y="180" type="line"/>
      <point x="22" y="-133" type="line"/>
      <point x="210" y="-133" type="line"/>
      <point x="210" y="0" type="line"/>
      <point x="669" y="0" type="line"/>
      <point x="669" y="-133" type="line"/>
      <point x="857" y="-133" type="line"/>
      <point x="857" y="180" type="line"/>
      <point x="747" y="180" type="line"/>
    </contour>
    <contour>
      <point x="547" y="180" type="line"/>
      <point x="306" y="180" type="line"/>
      <point x="347" y="255"/>
      <point x="368" y="347"/>
      <point x="368" y="543" type="curve" smooth="yes"/>
      <point x="368" y="560" type="line"/>
      <point x="547" y="560" type="line"/>
    </contour>
  </outline>
</glyph>
<glyph name="Iecyrillic" format="2">
  <advance height="1000" width="597"/>
  <unicode hex="0415"/>
  <outline>
    <contour>
      <point x="64" y="0" type="line"/>
      <point x="541" y="0" type="line"/>
      <point x="541" y="178" type="line"/>
      <point x="264" y="178" type="line"/>
      <point x="264" y="294" type="line"/>
      <point x="516" y="294" type="line"/>
      <point x="516" y="452" type="line"/>
      <point x="264" y="452" type="line"/>
      <point x="264" y="562" type="line"/>
      <point x="531" y="562" type="line"/>
      <point x="531" y="740" type="line"/>
      <point x="64" y="740" type="line"/>
    </contour>
  </outline>
</glyph>
<glyph name="Zhecyrillic" format="2">
  <advance height="1000" width="1104"/>
  <unicode hex="0416"/>
  <outline>
    <contour>
      <point x="453" y="0" type="line"/>
      <point x="651" y="0" type="line"/>
      <point x="651" y="292" type="line"/>
      <point x="694" y="292" type="line"/>
      <point x="853" y="0" type="line"/>
      <point x="1092" y="0" type="line"/>
      <point x="848" y="393" type="line"/>
      <point x="1066" y="740" type="line"/>
      <point x="847" y="740" type="line"/>
      <point x="694" y="464" type="line"/>
      <point x="651" y="464" type="line"/>
      <point x="651" y="740" type="line"/>
      <point x="453" y="740" type="line"/>
      <point x="453" y="464" type="line"/>
      <point x="410" y="464" type="line"/>
      <point x="257" y="740" type="line"/>
      <point x="38" y="740" type="line"/>
      <point x="256" y="389" type="line"/>
      <point x="12" y="0" type="line"/>
      <point x="251" y="0" type="line"/>
      <point x="410" y="292" type="line"/>
      <point x="453" y="292" type="line"/>
    </contour>
  </outline>
</glyph>
<glyph name="Zecyrillic" format="2">
  <advance height="1000" width="632"/>
  <unicode hex="0417"/>
  <outline>
    <contour>
      <point x="50" y="222" type="curve"/>
      <point x="50" y="40" type="line"/>
      <point x="116" y="6"/>
      <point x="199" y="-14"/>
      <point x="289" y="-14" type="curve" smooth="yes"/>
      <point x="481" y="-14"/>
      <point x="588" y="76"/>
      <point x="588" y="206" type="curve" smooth="yes"/>
      <point x="588" y="292"/>
      <point x="542" y="351"/>
      <point x="450" y="375" type="curve"/>
      <point x="528" y="401"/>
      <point x="578" y="464"/>
      <point x="578" y="546" type="curve" smooth="yes"/>
      <point x="578" y="664"/>
      <point x="473" y="757"/>
      <point x="289" y="757" type="curve" smooth="yes"/>
      <point x="201" y="757"/>
      <point x="124" y="739"/>
      <point x="58" y="707" type="curve"/>
      <point x="58" y="525" type="line"/>
      <point x="126" y="563"/>
      <point x="190" y="584"/>
      <point x="276" y="584" type="curve" smooth="yes"/>
      <point x="348" y="584"/>
      <point x="378" y="559"/>
      <point x="378" y="517" type="curve" smooth="yes"/>
      <point x="378" y="475"/>
      <point x="351" y="452"/>
      <point x="287" y="452" type="curve" smooth="yes"/>
      <point x="171" y="452" type="line"/>
      <point x="171" y="293" type="line"/>
      <point x="292" y="293" type="line" smooth="yes"/>
      <point x="358" y="293"/>
      <point x="387" y="270"/>
      <point x="387" y="227" type="curve" smooth="yes"/>
      <point x="387" y="183"/>
      <point x="355" y="159"/>
      <point x="268" y="159" type="curve" smooth="yes"/>
      <point x="190" y="159"/>
      <point x="120" y="182"/>
    </contour>
  </outline>
</glyph>
<glyph name="Iicyrillic" format="2">
  <advance height="1000" width="802"/>
  <unicode hex="0418"/>
  <outline>
    <contour>
      <point x="64" y="0" type="line"/>
      <point x="258" y="0" type="line"/>
      <point x="544" y="453" type="line"/>
      <point x="544" y="0" type="line"/>
      <point x="738" y="0" type="line"/>
      <point x="738" y="740" type="line"/>
      <point x="544" y="740" type="line"/>
      <point x="258" y="287" type="line"/>
      <point x="258" y="740" type="line"/>
      <point x="64" y="740" type="line"/>
    </contour>
  </outline>
</glyph>
<glyph name="Elcyrillic" format="2">
  <advance height="1000" width="802"/>
  <unicode hex="041B"/>
  <outline>
    <contour>
      <point x="20" y="169" type="curve"/>
      <point x="20" y="-8" type="line"/>
      <point x="36" y="-13"/>
      <point x="57" y="-16"/>
      <point x="95" y="-16" type="curve" smooth="yes"/>
      <point x="159" y="-16"/>
      <point x="219" y="6"/>
      <point x="255" y="42" type="curve" smooth="yes"/>
      <point x="325" y="112"/>
      <point x="363" y="206"/>
      <point x="363" y="518" type="curve" smooth="yes"/>
      <point x="363" y="560" type="line"/>
      <point x="538" y="560" type="line"/>
      <point x="538" y="0" type="line"/>
      <point x="738" y="0" type="line"/>
      <point x="738" y="740" type="line"/>
      <point x="177" y="740" type="line"/>
      <point x="177" y="566" type="line" smooth="yes"/>
      <point x="177" y="284"/>
      <point x="156" y="219"/>
      <point x="122" y="185" type="curve" smooth="yes"/>
      <point x="105" y="168"/>
      <point x="86" y="162"/>
      <point x="60" y="162" type="curve" smooth="yes"/>
      <point x="48" y="162"/>
      <point x="32" y="165"/>
    </contour>
  </outline>
</glyph>
<glyph name="Pecyrillic" format="2">
  <advance height="1000" width="786"/>
  <unicode hex="041F"/>
  <outline>
    <contour>
      <point x="64" y="0" type="line"/>
      <point x="264" y="0" type="line"/>
      <point x="264" y="560" type="line"/>
      <point x="522" y="560" type="line"/>
      <point x="522" y="0" type="line"/>
      <point x="722" y="0" type="line"/>
      <point x="722" y="740" type="line"/>
      <point x="64" y="740" type="line"/>
    </contour>
  </outline>
</glyph>
<glyph name="Ucyrillic" format="2">
  <advance height="1000" width="762"/>
  <unicode hex="0423"/>
  <outline>
    <contour>
      <point x="223" y="-16" type="curve" smooth="yes"/>
      <point x="353" y="-16"/>
      <point x="447" y="35"/>
      <point x="530" y="226" type="curve" smooth="yes"/>
      <point x="752" y="740" type="line"/>
      <point x="551" y="740" type="line"/>
      <point x="420" y="421" type="line"/>
      <point x="245" y="740" type="line"/>
      <point x="14" y="740" type="line"/>
      <point x="317" y="234" type="line"/>
      <point x="313" y="225" type="line" smooth="yes"/>
      <point x="294" y="183"/>
      <point x="259" y="167"/>
      <point x="203" y="167" type="curve" smooth="yes"/>
      <point x="173" y="167"/>
      <point x="145" y="173"/>
      <point x="129" y="180" type="curve"/>
      <point x="129" y="-6" type="line"/>
      <point x="143" y="-10"/>
      <point x="189" y="-16"/>
    </contour>
  </outline>
</glyph>
<glyph name="Efcyrillic" format="2">
  <advance height="1000" width="1028"/>
  <unicode hex="0424"/>
  <outline>
    <contour>
      <point x="226" y="372" type="curve" smooth="yes"/>
      <point x="226" y="453"/>
      <point x="272" y="510"/>
      <point x="409" y="510" type="curve" smooth="yes"/>
      <point x="419" y="510" type="line"/>
      <point x="419" y="235" type="line"/>
      <point x="409" y="235" type="line" smooth="yes"/>
      <point x="272" y="235"/>
      <point x="226" y="292"/>
    </contour>
    <contour>
      <point x="614" y="69" type="line"/>
      <point x="624" y="69" type="line" smooth="yes"/>
      <point x="876" y="69"/>
      <point x="996" y="204"/>
      <point x="996" y="374" type="curve" smooth="yes"/>
      <point x="996" y="544"/>
      <point x="882" y="676"/>
      <point x="624" y="676" type="curve" smooth="yes"/>
      <point x="614" y="676" type="line"/>
      <point x="614" y="761" type="line"/>
      <point x="414" y="761" type="line"/>
      <point x="414" y="676" type="line"/>
      <point x="404" y="676" type="line" smooth="yes"/>
      <point x="152" y="676"/>
      <point x="32" y="541"/>
      <point x="32" y="371" type="curve" smooth="yes"/>
      <point x="32" y="201"/>
      <point x="146" y="69"/>
      <point x="404" y="69" type="curve" smooth="yes"/>
      <point x="414" y="69" type="line"/>
      <point x="414" y="-20" type="line"/>
      <point x="614" y="-20" type="line"/>
    </contour>
    <contour>
      <point x="802" y="373" type="curve" smooth="yes"/>
      <point x="802" y="292"/>
      <point x="756" y="235"/>
      <point x="619" y="235" type="curve" smooth="yes"/>
      <point x="609" y="235" type="line"/>
      <point x="609" y="510" type="line"/>
      <point x="619" y="510" type="line" smooth="yes"/>
      <point x="756" y="510"/>
      <point x="802" y="453"/>
    </contour>
  </outline>
</glyph>
<glyph name="Yericyrillic" format="2">
  <advance height="1000" width="969"/>
  <unicode hex="042B"/>
  <outline>
    <contour>
      <point x="705" y="0" type="line"/>
      <point x="905" y="0" type="line"/>
      <point x="905" y="740" type="line"/>
      <point x="705" y="740" type="line"/>
    </contour>
    <contour>
      <point x="64" y="0" type="line"/>
      <point x="349" y="0" type="line" smooth="yes"/>
      <point x="527" y="0"/>
      <point x="643" y="101"/>
      <point x="643" y="264" type="curve" smooth="yes"/>
      <point x="643" y="427"/>
      <point x="528" y="517"/>
      <point x="349" y="517" type="curve" smooth="yes"/>
      <point x="264" y="517" type="line"/>
      <point x="264" y="740" type="line"/>
      <point x="64" y="740" type="line"/>
    </contour>
    <contour>
      <point x="264" y="351" type="line"/>
      <point x="339" y="351" type="line" smooth="yes"/>
      <point x="398" y="351"/>
      <point x="441" y="319"/>
      <point x="441" y="258" type="curve" smooth="yes"/>
      <point x="441" y="198"/>
      <point x="398" y="166"/>
      <point x="339" y="166" type="curve" smooth="yes"/>
      <point x="264" y="166" type="line"/>
    </contour>
  </outline>
</glyph>
<glyph name="Softsigncyrillic" format="2">
  <advance height="1000" width="681"/>
  <unicode hex="042C"/>
  <outline>
    <contour>
      <point x="64" y="0" type="line"/>
      <point x="355" y="0" type="line" smooth="yes"/>
      <point x="533" y="0"/>
      <point x="649" y="101"/>
      <point x="649" y="264" type="curve" smooth="yes"/>
      <point x="649" y="427"/>
      <point x="534" y="517"/>
      <point x="355" y="517" type="curve" smooth="yes"/>
      <point x="264" y="517" type="line"/>
      <point x="264" y="740" type="line"/>
      <point x="64" y="740" type="line"/>
    </contour>
    <contour>
      <point x="264" y="351" type="line"/>
      <point x="345" y="351" type="line" smooth="yes"/>
      <point x="404" y="351"/>
      <point x="447" y="319"/>
      <point x="447" y="258" type="curve" smooth="yes"/>
      <point x="447" y="198"/>
      <point x="404" y="166"/>
      <point x="345" y="166" type="curve" smooth="yes"/>
      <point x="264" y="166" type="line"/>
    </contour>
  </outline>
</glyph>
<glyph name="Ereversedcyrillic" format="2">
  <advance height="1000" width="728"/>
  <unicode hex="042D"/>
  <outline>
    <contour>
      <point x="187" y="293" type="line"/>
      <point x="506" y="293" type="line"/>
      <point x="506" y="452" type="line"/>
      <point x="187" y="452" type="line"/>
    </contour>
    <contour>
      <point x="50" y="222" type="curve"/>
      <point x="50" y="40" type="line"/>
      <point x="116" y="6"/>
      <point x="199" y="-14"/>
      <point x="297" y="-14" type="curve" smooth="yes"/>
      <point x="535" y="-14"/>
      <point x="684" y="134"/>
      <point x="684" y="372" type="curve" smooth="yes"/>
      <point x="684" y="610"/>
      <point x="535" y="757"/>
      <point x="297" y="757" type="curve" smooth="yes"/>
      <point x="199" y="757"/>
      <point x="124" y="739"/>
      <point x="58" y="707" type="curve"/>
      <point x="58" y="525" type="line"/>
      <point x="126" y="563"/>
      <point x="190" y="584"/>
      <point x="274" y="584" type="curve" smooth="yes"/>
      <point x="404" y="584"/>
      <point x="480" y="510"/>
      <point x="480" y="372" type="curve" smooth="yes"/>
      <point x="480" y="234"/>
      <point x="404" y="159"/>
      <point x="274" y="159" type="curve" smooth="yes"/>
      <point x="190" y="159"/>
      <point x="124" y="180"/>
    </contour>
  </outline>
</glyph>
<glyph name="IAcyrillic" format="2">
  <advance height="1000" width="715"/>
  <unicode hex="042F"/>
  <outline>
    <contour>
      <point x="12" y="0" type="line"/>
      <point x="249" y="0" type="line"/>
      <point x="391" y="263" type="line"/>
      <point x="451" y="263" type="line"/>
      <point x="451" y="0" type="line"/>
      <point x="651" y="0" type="line"/>
      <point x="651" y="740" type="line"/>
      <point x="329" y="740" type="line" smooth="yes"/>
      <point x="173" y="740"/>
      <point x="67" y="648"/>
      <point x="67" y="496" type="curve" smooth="yes"/>
      <point x="67" y="399"/>
      <point x="114" y="333"/>
      <point x="186" y="297" type="curve"/>
    </contour>
    <contour>
      <point x="451" y="411" type="line"/>
      <point x="365" y="411" type="line" smooth="yes"/>
      <point x="307" y="411"/>
      <point x="268" y="440"/>
      <point x="268" y="496" type="curve" smooth="yes"/>
      <point x="268" y="552"/>
      <point x="307" y="580"/>
      <point x="365" y="580" type="curve" smooth="yes"/>
      <point x="451" y="580" type="line"/>
    </contour>
  </outline>
</glyph>
<glyph name="vecyrillic" format="2">
  <advance height="1000" width="577"/>
  <unicode hex="0432"/>
  <outline>
    <contour>
      <point x="48" y="0" type="line"/>
      <point x="350" y="0" type="line" smooth="yes"/>
      <point x="485" y="0"/>
      <point x="551" y="55"/>
      <point x="551" y="148" type="curve" smooth="yes"/>
      <point x="551" y="214"/>
      <point x="511" y="255"/>
      <point x="440" y="272" type="curve"/>
      <point x="500" y="290"/>
      <point x="534" y="333"/>
      <point x="534" y="393" type="curve" smooth="yes"/>
      <point x="534" y="488"/>
      <point x="468" y="536"/>
      <point x="346" y="536" type="curve" smooth="yes"/>
      <point x="48" y="536" type="line"/>
    </contour>
    <contour>
      <point x="236" y="322" type="line"/>
      <point x="236" y="409" type="line"/>
      <point x="292" y="409" type="line" smooth="yes"/>
      <point x="321" y="409"/>
      <point x="340" y="396"/>
      <point x="340" y="366" type="curve" smooth="yes"/>
      <point x="340" y="337"/>
      <point x="321" y="322"/>
      <point x="292" y="322" type="curve" smooth="yes"/>
    </contour>
    <contour>
      <point x="236" y="129" type="line"/>
      <point x="236" y="217" type="line"/>
      <point x="307" y="217" type="line" smooth="yes"/>
      <point x="335" y="217"/>
      <point x="355" y="203"/>
      <point x="355" y="173" type="curve" smooth="yes"/>
      <point x="355" y="144"/>
      <point x="335" y="129"/>
      <point x="307" y="129" type="curve" smooth="yes"/>
    </contour>
  </outline>
</glyph>
<glyph name="zecyrillic" format="2">
  <advance height="1000" width="518"/>
  <unicode hex="0437"/>
  <outline>
    <contour>
      <point x="40" y="172" type="curve"/>
      <point x="40" y="21" type="line"/>
      <point x="92" y="-1"/>
      <point x="166" y="-12"/>
      <point x="233" y="-12" type="curve" smooth="yes"/>
      <point x="389" y="-12"/>
      <point x="482" y="48"/>
      <point x="482" y="149" type="curve" smooth="yes"/>
      <point x="482" y="214"/>
      <point x="445" y="255"/>
      <point x="377" y="273" type="curve"/>
      <point x="438" y="293"/>
      <point x="472" y="334"/>
      <point x="472" y="394" type="curve" smooth="yes"/>
      <point x="472" y="491"/>
      <point x="400" y="548"/>
      <point x="242" y="548" type="curve" smooth="yes"/>
      <point x="166" y="548"/>
      <point x="96" y="532"/>
      <point x="44" y="510" type="curve"/>
      <point x="44" y="360" type="line"/>
      <point x="90" y="388"/>
      <point x="145" y="404"/>
      <point x="199" y="404" type="curve" smooth="yes"/>
      <point x="254" y="404"/>
      <point x="276" y="389"/>
      <point x="276" y="366" type="curve" smooth="yes"/>
      <point x="276" y="342"/>
      <point x="256" y="328"/>
      <point x="211" y="328" type="curve" smooth="yes"/>
      <point x="132" y="328" type="line"/>
      <point x="132" y="215" type="line"/>
      <point x="223" y="215" type="line" smooth="yes"/>
      <point x="266" y="215"/>
      <point x="284" y="203"/>
      <point x="284" y="178" type="curve" smooth="yes"/>
      <point x="284" y="151"/>
      <point x="260" y="134"/>
      <point x="204" y="134" type="curve" smooth="yes"/>
      <point x="150" y="134"/>
      <point x="94" y="148"/>
    </contour>
  </outline>
</glyph>
<glyph name="iicyrillic" format="2">
  <advance height="1000" width="644"/>
  <unicode hex="0438"/>
  <outline>
    <contour>
      <point x="48" y="0" type="line"/>
      <point x="238" y="0" type="line"/>
      <point x="410" y="288" type="line"/>
      <point x="410" y="0" type="line"/>
      <point x="596" y="0" type="line"/>
      <point x="596" y="536" type="line"/>
      <point x="406" y="536" type="line"/>
      <point x="234" y="248" type="line"/>
      <point x="234" y="536" type="line"/>
      <point x="48" y="536" type="line"/>
    </contour>
  </outline>
</glyph>
<glyph name="iishortcyrillic" format="2">
  <advance height="1000" width="644"/>
  <unicode hex="0439"/>
  <outline>
    <contour>
      <point x="48" y="0" type="line"/>
      <point x="238" y="0" type="line"/>
      <point x="410" y="288" type="line"/>
      <point x="410" y="0" type="line"/>
      <point x="596" y="0" type="line"/>
      <point x="596" y="536" type="line"/>
      <point x="406" y="536" type="line"/>
      <point x="234" y="248" type="line"/>
      <point x="234" y="536" type="line"/>
      <point x="48" y="536" type="line"/>
    </contour>
    <contour>
      <point x="276" y="740" type="curve"/>
      <point x="156" y="740" type="line"/>
      <point x="156" y="640"/>
      <point x="218" y="584"/>
      <point x="323" y="584" type="curve" smooth="yes"/>
      <point x="428" y="584"/>
      <point x="490" y="640"/>
      <point x="490" y="740" type="curve"/>
      <point x="370" y="740" type="line"/>
      <point x="370" y="694"/>
      <point x="354" y="676"/>
      <point x="323" y="676" type="curve" smooth="yes"/>
      <point x="292" y="676"/>
      <point x="276" y="694"/>
    </contour>
  </outline>
</glyph>
<glyph name="emcyrillic" format="2">
  <advance height="1000" width="807"/>
  <unicode hex="043C"/>
  <outline>
    <contour>
      <point x="48" y="0" type="line"/>
      <point x="218" y="0" type="line"/>
      <point x="218" y="376" type="line"/>
      <point x="331" y="56" type="line"/>
      <point x="464" y="56" type="line"/>
      <point x="577" y="376" type="line"/>
      <point x="577" y="0" type="line"/>
      <point x="759" y="0" type="line"/>
      <point x="759" y="536" type="line"/>
      <point x="495" y="536" type="line"/>
      <point x="405" y="280" type="line"/>
      <point x="315" y="536" type="line"/>
      <point x="48" y="536" type="line"/>
    </contour>
  </outline>
</glyph>
<glyph name="ocyrillic" format="2">
  <advance height="1000" width="626"/>
  <unicode hex="043E"/>
  <outline>
    <contour>
      <point x="312.0" y="-12.0" type="curve" smooth="yes"/>
      <point x="479.0" y="-12.0"/>
      <point x="590.0" y="100.0"/>
      <point x="590.0" y="270.0" type="curve" smooth="yes"/>
      <point x="590.0" y="438.0"/>
      <point x="479.0" y="548.0"/>
      <point x="312.0" y="548.0" type="curve" smooth="yes"/>
      <point x="146.0" y="548.0"/>
      <point x="36.0" y="437.0"/>
      <point x="36.0" y="267.0" type="curve" smooth="yes"/>
      <point x="36.0" y="98.0"/>
      <point x="146.0" y="-12.0"/>
    </contour>
    <contour>
      <point x="312.0" y="152.0" type="curve" smooth="yes"/>
      <point x="256.0" y="152.0"/>
      <point x="227.0" y="199.0"/>
      <point x="227.0" y="269.0" type="curve" smooth="yes"/>
      <point x="227.0" y="339.0"/>
      <point x="256.0" y="385.0"/>
      <point x="312.0" y="385.0" type="curve" smooth="yes"/>
      <point x="369.0" y="385.0"/>
      <point x="398.0" y="339.0"/>
      <point x="398.0" y="269.0" type="curve" smooth="yes"/>
      <point x="398.0" y="199.0"/>
      <point x="369.0" y="152.0"/>
    </contour>
  </outline>
</glyph>
<glyph name="ercyrillic" format="2">
  <advance height="1000" width="619"/>
  <unicode hex="0440"/>
  <outline>
    <contour>
      <point x="48.0" y="-189.0" type="line"/>
      <point x="238.0" y="-189.0" type="line"/>
      <point x="238.0" y="4.0" type="line"/>
      <point x="265.0" y="-3.0"/>
      <point x="297.0" y="-8.0"/>
      <point x="321.0" y="-8.0" type="curve" smooth="yes"/>
      <point x="482.0" y="-8.0"/>
      <point x="583.0" y="108.0"/>
      <point x="583.0" y="288.0" type="curve" smooth="yes"/>
      <point x="583.0" y="445.0"/>
      <point x="509.0" y="548.0"/>
      <point x="388.0" y="548.0" type="curve" smooth="yes"/>
      <point x="318.0" y="548.0"/>
      <point x="271.0" y="518.0"/>
      <point x="238.0" y="472.0" type="curve"/>
      <point x="238.0" y="536.0" type="line"/>
      <point x="48.0" y="536.0" type="line"/>
    </contour>
    <contour>
      <point x="294.0" y="149.0" type="curve" smooth="yes"/>
      <point x="275.0" y="149.0"/>
      <point x="257.0" y="152.0"/>
      <point x="238.0" y="157.0" type="curve"/>
      <point x="238.0" y="359.0" type="line"/>
      <point x="256.0" y="374.0"/>
      <point x="280.0" y="383.0"/>
      <point x="303.0" y="383.0" type="curve" smooth="yes"/>
      <point x="359.0" y="383.0"/>
      <point x="389.0" y="340.0"/>
      <point x="389.0" y="268.0" type="curve" smooth="yes"/>
      <point x="389.0" y="189.0"/>
      <point x="353.0" y="149.0"/>
    </contour>
  </outline>
</glyph>
<glyph name="escyrillic" format="2">
  <advance height="1000" width="525"/>
  <unicode hex="0441"/>
  <outline>
    <contour>
      <point x="317.0" y="-12.0" type="curve" smooth="yes"/>
      <point x="378.0" y="-12.0"/>
      <point x="435.0" y="4.0"/>
      <point x="485.0" y="29.0" type="curve"/>
      <point x="485.0" y="205.0" type="line"/>
      <point x="444.0" y="177.0"/>
      <point x="397.0" y="159.0"/>
      <point x="352.0" y="159.0" type="curve" smooth="yes"/>
      <point x="281.0" y="159.0"/>
      <point x="236.0" y="197.0"/>
      <point x="236.0" y="270.0" type="curve" smooth="yes"/>
      <point x="236.0" y="341.0"/>
      <point x="279.0" y="377.0"/>
      <point x="348.0" y="377.0" type="curve" smooth="yes"/>
      <point x="393.0" y="377.0"/>
      <point x="438.0" y="361.0"/>
      <point x="480.0" y="338.0" type="curve"/>
      <point x="480.0" y="514.0" type="line"/>
      <point x="432.0" y="536.0"/>
      <point x="377.0" y="548.0"/>
      <point x="317.0" y="548.0" type="curve" smooth="yes"/>
      <point x="147.0" y="548.0"/>
      <point x="36.0" y="442.0"/>
      <point x="36.0" y="264.0" type="curve" smooth="yes"/>
      <point x="36.0" y="92.0"/>
      <point x="148.0" y="-12.0"/>
    </contour>
  </outline>
</glyph>
<glyph name="ucyrillic" format="2">
  <advance height="1000" width="596"/>
  <unicode hex="0443"/>
  <outline>
    <contour>
      <point x="32.0" y="-189.0" type="line" smooth="yes"/>
      <point x="249.0" y="-189.0"/>
      <point x="358.0" y="-122.0"/>
      <point x="434.0" y="96.0" type="curve" smooth="yes"/>
      <point x="588.0" y="536.0" type="line"/>
      <point x="405.0" y="536.0" type="line"/>
      <point x="309.0" y="201.0" type="line"/>
      <point x="213.0" y="536.0" type="line"/>
      <point x="8.0" y="536.0" type="line"/>
      <point x="183.0" y="49.0" type="line"/>
      <point x="212.0" y="34.0" type="line"/>
      <point x="179.0" y="-15.0"/>
      <point x="133.0" y="-29.0"/>
      <point x="32.0" y="-29.0" type="curve" smooth="yes"/>
      <point x="23.0" y="-29.0" type="line"/>
      <point x="23.0" y="-189.0" type="line"/>
    </contour>
  </outline>
</glyph>
<glyph name="efcyrillic" format="2">
  <advance height="1000" width="836"/>
  <unicode hex="0444"/>
  <outline>
    <contour>
      <point x="513" y="720" type="line"/>
      <point x="323" y="720" type="line"/>
      <point x="323" y="544" type="line"/>
      <point x="137" y="534"/>
      <point x="28" y="419"/>
      <point x="28" y="267" type="curve" smooth="yes"/>
      <point x="28" y="115"/>
      <point x="137" y="2"/>
      <point x="323" y="-8" type="curve"/>
      <point x="323" y="-197" type="line"/>
      <point x="513" y="-197" type="line"/>
      <point x="513" y="-8" type="line"/>
      <point x="699" y="2"/>
      <point x="808" y="117"/>
      <point x="808" y="269" type="curve" smooth="yes"/>
      <point x="808" y="421"/>
      <point x="699" y="534"/>
      <point x="513" y="544" type="curve"/>
    </contour>
    <contour>
      <point x="325" y="148" type="line"/>
      <point x="249" y="154"/>
      <point x="211" y="201"/>
      <point x="211" y="269" type="curve" smooth="yes"/>
      <point x="211" y="337"/>
      <point x="249" y="382"/>
      <point x="325" y="388" type="curve"/>
    </contour>
    <contour>
      <point x="511" y="388" type="line"/>
      <point x="587" y="382"/>
      <point x="625" y="335"/>
      <point x="625" y="267" type="curve" smooth="yes"/>
      <point x="625" y="199"/>
      <point x="587" y="154"/>
      <point x="511" y="148" type="curve"/>
    </contour>
  </outline>
</glyph>
<glyph name="hardsigncyrillic" format="2">
  <advance height="1000" width="673"/>
  <unicode hex="044A"/>
  <outline>
    <contour>
      <point x="148" y="0" type="line"/>
      <point x="420" y="0" type="line" smooth="yes"/>
      <point x="564" y="0"/>
      <point x="651" y="70"/>
      <point x="651" y="198" type="curve" smooth="yes"/>
      <point x="651" y="326"/>
      <point x="564" y="392"/>
      <point x="422" y="392" type="curve" smooth="yes"/>
      <point x="338" y="392" type="line"/>
      <point x="338" y="536" type="line"/>
      <point x="24" y="536" type="line"/>
      <point x="24" y="376" type="line"/>
      <point x="148" y="376" type="line"/>
    </contour>
    <contour>
      <point x="338" y="258" type="line"/>
      <point x="389" y="258" type="line" smooth="yes"/>
      <point x="431" y="258"/>
      <point x="455" y="236"/>
      <point x="455" y="196" type="curve" smooth="yes"/>
      <point x="455" y="156"/>
      <point x="431" y="134"/>
      <point x="389" y="134" type="curve" smooth="yes"/>
      <point x="338" y="134" type="line"/>
    </contour>
  </outline>
</glyph>
<glyph name="ereversedcyrillic" format="2">
  <advance height="1000" width="539"/>
  <unicode hex="044D"/>
  <outline>
    <contour>
      <point x="40" y="172" type="curve"/>
      <point x="40" y="21" type="line"/>
      <point x="82" y="1"/>
      <point x="141" y="-12"/>
      <point x="211" y="-12" type="curve" smooth="yes"/>
      <point x="391" y="-12"/>
      <point x="503" y="96"/>
      <point x="503" y="270" type="curve" smooth="yes"/>
      <point x="503" y="444"/>
      <point x="393" y="548"/>
      <point x="219" y="548" type="curve" smooth="yes"/>
      <point x="153" y="548"/>
      <point x="88" y="532"/>
      <point x="44" y="510" type="curve"/>
      <point x="44" y="360" type="line"/>
      <point x="88" y="388"/>
      <point x="137" y="404"/>
      <point x="185" y="404" type="curve" smooth="yes"/>
      <point x="265" y="404"/>
      <point x="315" y="359"/>
      <point x="315" y="269" type="curve" smooth="yes"/>
      <point x="315" y="179"/>
      <point x="262" y="134"/>
      <point x="185" y="134" type="curve" smooth="yes"/>
      <point x="133" y="134"/>
      <point x="83" y="147"/>
    </contour>
    <contour>
      <point x="132" y="215" type="line"/>
      <point x="438" y="215" type="line"/>
      <point x="438" y="328" type="line"/>
      <point x="132" y="328" type="line"/>
    </contour>
  </outline>
</glyph>
<glyph name="iucyrillic" format="2">
  <advance height="1000" width="883"/>
  <unicode hex="044E"/>
  <outline>
    <contour>
      <point x="48" y="0" type="line"/>
      <point x="238" y="0" type="line"/>
      <point x="238" y="191" type="line"/>
      <point x="343" y="191" type="line"/>
      <point x="343" y="347" type="line"/>
      <point x="238" y="347" type="line"/>
      <point x="238" y="536" type="line"/>
      <point x="48" y="536" type="line"/>
    </contour>
    <contour>
      <point x="299" y="267" type="curve" smooth="yes"/>
      <point x="299" y="98"/>
      <point x="408" y="-12"/>
      <point x="573" y="-12" type="curve"/>
      <point x="737" y="-12"/>
      <point x="847" y="100"/>
      <point x="847" y="270" type="curve" smooth="yes"/>
      <point x="847" y="438"/>
      <point x="737" y="548"/>
      <point x="573" y="548" type="curve" smooth="yes"/>
      <point x="408" y="548"/>
      <point x="299" y="437"/>
    </contour>
    <contour>
      <point x="490" y="269" type="curve" smooth="yes"/>
      <point x="490" y="339"/>
      <point x="518" y="385"/>
      <point x="572" y="385" type="curve" smooth="yes"/>
      <point x="627" y="385"/>
      <point x="655" y="339"/>
      <point x="655" y="269" type="curve" smooth="yes"/>
      <point x="655" y="199"/>
      <point x="627" y="152"/>
      <point x="572" y="152" type="curve"/>
      <point x="518" y="152"/>
      <point x="490" y="199"/>
    </contour>
  </outline>
</glyph>
<glyph name="iegravecyrillic" format="2">
  <advance height="1000" width="581"/>
  <unicode hex="0450"/>
  <outline>
    <contour>
      <point x="321.0" y="-12.0" type="curve" smooth="yes"/>
      <point x="387.0" y="-12.0"/>
      <point x="461.0" y="1.0"/>
      <point x="535.0" y="28.0" type="curve"/>
      <point x="535.0" y="186.0" type="line"/>
      <point x="478.0" y="155.0"/>
      <point x="418.0" y="140.0"/>
      <point x="363.0" y="140.0" type="curve" smooth="yes"/>
      <point x="282.0" y="140.0"/>
      <point x="236.0" y="166.0"/>
      <point x="232.0" y="219.0" type="curve"/>
      <point x="232.0" y="220.0" type="line"/>
      <point x="549.0" y="220.0" type="line"/>
      <point x="549.0" y="246.0" type="line" smooth="yes"/>
      <point x="549.0" y="436.0"/>
      <point x="465.0" y="548.0"/>
      <point x="305.0" y="548.0" type="curve" smooth="yes"/>
      <point x="137.0" y="548.0"/>
      <point x="36.0" y="439.0"/>
      <point x="36.0" y="270.0" type="curve" smooth="yes"/>
      <point x="36.0" y="96.0"/>
      <point x="142.0" y="-12.0"/>
    </contour>
    <contour>
      <point x="299.0" y="420.0" type="curve" smooth="yes"/>
      <point x="342.0" y="420.0"/>
      <point x="363.0" y="390.0"/>
      <point x="363.0" y="327.0" type="curve"/>
      <point x="231.0" y="327.0" type="line"/>
      <point x="233.0" y="388.0"/>
      <point x="255.0" y="420.0"/>
    </contour>
    <contour>
      <point x="232" y="592" type="line"/>
      <point x="377" y="592" type="line"/>
      <point x="276" y="748" type="line"/>
      <point x="110" y="748" type="line"/>
    </contour>
  </outline>
</glyph>
<glyph name="ecyrillic" format="2">
  <advance height="1000" width="539"/>
  <unicode hex="0454"/>
  <outline>
    <contour>
      <point x="495" y="360" type="curve"/>
      <point x="495" y="510" type="line"/>
      <point x="445" y="535"/>
      <point x="387" y="548"/>
      <point x="317" y="548" type="curve" smooth="yes"/>
      <point x="147" y="548"/>
      <point x="36" y="443"/>
      <point x="36" y="263" type="curve" smooth="yes"/>
      <point x="36" y="91"/>
      <point x="148" y="-12"/>
      <point x="330" y="-12" type="curve" smooth="yes"/>
      <point x="400" y="-12"/>
      <point x="461" y="1"/>
      <point x="499" y="21" type="curve"/>
      <point x="499" y="172" type="line"/>
      <point x="461" y="148"/>
      <point x="411" y="134"/>
      <point x="361" y="134" type="curve" smooth="yes"/>
      <point x="277" y="134"/>
      <point x="224" y="179"/>
      <point x="224" y="271" type="curve" smooth="yes"/>
      <point x="224" y="359"/>
      <point x="271" y="404"/>
      <point x="353" y="404" type="curve" smooth="yes"/>
      <point x="409" y="404"/>
      <point x="459" y="384"/>
    </contour>
    <contour>
      <point x="407" y="328" type="line"/>
      <point x="101" y="328" type="line"/>
      <point x="101" y="215" type="line"/>
      <point x="407" y="215" type="line"/>
    </contour>
  </outline>
</glyph>
<glyph name="dzecyrillic" format="2">
  <advance height="1000" width="501"/>
  <unicode hex="0455"/>
  <outline>
    <contour>
      <point x="239.0" y="-14.0" type="curve" smooth="yes"/>
      <point x="393.0" y="-14.0"/>
      <point x="469.0" y="57.0"/>
      <point x="469.0" y="168.0" type="curve" smooth="yes"/>
      <point x="469.0" y="254.0"/>
      <point x="421.0" y="311.0"/>
      <point x="309.0" y="342.0" type="curve" smooth="yes"/>
      <point x="273.0" y="353.0" type="line" smooth="yes"/>
      <point x="242.0" y="362.0"/>
      <point x="232.0" y="373.0"/>
      <point x="232.0" y="388.0" type="curve" smooth="yes"/>
      <point x="232.0" y="405.0"/>
      <point x="249.0" y="415.0"/>
      <point x="277.0" y="415.0" type="curve" smooth="yes"/>
      <point x="331.0" y="415.0"/>
      <point x="385.0" y="401.0"/>
      <point x="438.0" y="376.0" type="curve"/>
      <point x="438.0" y="525.0" type="line"/>
      <point x="378.0" y="540.0"/>
      <point x="311.0" y="550.0"/>
      <point x="248.0" y="550.0" type="curve" smooth="yes"/>
      <point x="102.0" y="550.0"/>
      <point x="32.0" y="484.0"/>
      <point x="32.0" y="375.0" type="curve" smooth="yes"/>
      <point x="32.0" y="286.0"/>
      <point x="77.0" y="232.0"/>
      <point x="188.0" y="200.0" type="curve" smooth="yes"/>
      <point x="224.0" y="190.0" type="line" smooth="yes"/>
      <point x="258.0" y="181.0"/>
      <point x="268.0" y="169.0"/>
      <point x="268.0" y="154.0" type="curve" smooth="yes"/>
      <point x="268.0" y="135.0"/>
      <point x="250.0" y="124.0"/>
      <point x="218.0" y="124.0" type="curve" smooth="yes"/>
      <point x="159.0" y="124.0"/>
      <point x="96.0" y="141.0"/>
      <point x="42.0" y="169.0" type="curve"/>
      <point x="42.0" y="15.0" type="line"/>
      <point x="104.0" y="-3.0"/>
      <point x="175.0" y="-14.0"/>
    </contour>
  </outline>
</glyph>
<glyph name="icyrillic" format="2">
  <advance height="1000" width="286"/>
  <unicode hex="0456"/>
  <outline>
    <contour>
      <point x="48.0" y="0.0" type="line"/>
      <point x="238.0" y="0.0" type="line"/>
      <point x="238.0" y="536.0" type="line"/>
      <point x="48.0" y="536.0" type="line"/>
    </contour>
    <contour>
      <point x="48.0" y="584.0" type="line"/>
      <point x="238.0" y="584.0" type="line"/>
      <point x="238.0" y="740.0" type="line"/>
      <point x="48.0" y="740.0" type="line"/>
    </contour>
  </outline>
</glyph>
<glyph name="jecyrillic" format="2">
  <advance height="1000" width="293"/>
  <unicode hex="0458"/>
  <outline>
    <contour>
      <point x="55" y="584" type="line"/>
      <point x="245" y="584" type="line"/>
      <point x="245" y="740" type="line"/>
      <point x="55" y="740" type="line"/>
    </contour>
    <contour>
      <point x="-39" y="-189" type="line" smooth="yes"/>
      <point x="134" y="-189"/>
      <point x="245.0" y="-92.0"/>
      <point x="245" y="68" type="curve" smooth="yes"/>
      <point x="245" y="536" type="line"/>
      <point x="55" y="536" type="line"/>
      <point x="55" y="59" type="line" smooth="yes"/>
      <point x="55.0" y="-7.0"/>
      <point x="18" y="-37"/>
      <point x="-39" y="-37" type="curve" smooth="yes"/>
      <point x="-48" y="-37" type="line"/>
      <point x="-48" y="-189" type="line"/>
    </contour>
  </outline>
</glyph>
<glyph name="dzhecyrillic" format="2">
  <advance height="1000" width="604"/>
  <unicode hex="045F"/>
  <outline>
    <contour>
      <point x="48" y="0" type="line"/>
      <point x="209" y="0" type="line"/>
      <point x="209" y="-118" type="line"/>
      <point x="395" y="-118" type="line"/>
      <point x="395" y="0" type="line"/>
      <point x="556" y="0" type="line"/>
      <point x="556" y="536" type="line"/>
      <point x="366" y="536" type="line"/>
      <point x="366" y="160" type="line"/>
      <point x="238" y="160" type="line"/>
      <point x="238" y="536" type="line"/>
      <point x="48" y="536" type="line"/>
    </contour>
  </outline>
</glyph>
<glyph name="Gheupturncyrillic" format="2">
  <advance height="1000" width="566"/>
  <unicode hex="0490"/>
  <outline>
    <contour>
      <point x="264" y="560" type="line"/>
      <point x="542" y="560" type="line"/>
      <point x="542" y="873" type="line"/>
      <point x="346" y="873" type="line"/>
      <point x="346" y="740" type="line"/>
      <point x="64" y="740" type="line"/>
      <point x="64" y="0" type="line"/>
      <point x="264" y="0" type="line"/>
    </contour>
  </outline>
</glyph>
<glyph name="Zhedescendercyrillic" format="2">
  <advance height="1000" width="1143"/>
  <unicode hex="0496"/>
  <outline>
    <contour>
      <point x="453" y="0" type="line"/>
      <point x="651" y="0" type="line"/>
      <point x="651" y="292" type="line"/>
      <point x="694" y="292" type="line"/>
      <point x="853" y="0" type="line"/>
      <point x="1092" y="0" type="line"/>
      <point x="848" y="393" type="line"/>
      <point x="1066" y="740" type="line"/>
      <point x="847" y="740" type="line"/>
      <point x="694" y="464" type="line"/>
      <point x="651" y="464" type="line"/>
      <point x="651" y="740" type="line"/>
      <point x="453" y="740" type="line"/>
      <point x="453" y="464" type="line"/>
      <point x="410" y="464" type="line"/>
      <point x="257" y="740" type="line"/>
      <point x="38" y="740" type="line"/>
      <point x="256" y="389" type="line"/>
      <point x="12" y="0" type="line"/>
      <point x="251" y="0" type="line"/>
      <point x="410" y="292" type="line"/>
      <point x="453" y="292" type="line"/>
    </contour>
    <contour>
      <point x="868" y="180" type="line"/>
      <point x="868" y="0" type="line"/>
      <point x="931" y="0" type="line"/>
      <point x="931" y="-133" type="line"/>
      <point x="1119" y="-133" type="line"/>
      <point x="1119" y="180" type="line"/>
    </contour>
  </outline>
</glyph>
<glyph name="kadescendercyrillic" format="2">
  <advance height="1000" width="621"/>
  <unicode hex="049B"/>
  <outline>
    <contour>
      <point x="418" y="287" type="line"/>
      <point x="592" y="536" type="line"/>
      <point x="381" y="536" type="line"/>
      <point x="261" y="351" type="line"/>
      <point x="238" y="351" type="line"/>
      <point x="238" y="536" type="line"/>
      <point x="48" y="536" type="line"/>
      <point x="48" y="0" type="line"/>
      <point x="238" y="0" type="line"/>
      <point x="238" y="195" type="line"/>
      <point x="261" y="195" type="line"/>
      <point x="384" y="0" type="line"/>
      <point x="606" y="0" type="line"/>
    </contour>
    <contour>
      <point x="417" y="160" type="line"/>
      <point x="417" y="0" type="line"/>
      <point x="430" y="0" type="line"/>
      <point x="430" y="-118" type="line"/>
      <point x="616" y="-118" type="line"/>
      <point x="616" y="160" type="line"/>
    </contour>
  </outline>
</glyph>
<glyph name="Ustraightstrokecyrillic" format="2">
  <advance height="1000" width="759"/>
  <unicode hex="04B0"/>
  <outline>
    <contour>
      <point x="282" y="0" type="line"/>
      <point x="482" y="0" type="line"/>
      <point x="482" y="298" type="line"/>
      <point x="747" y="740" type="line"/>
      <point x="539" y="740" type="line"/>
      <point x="392" y="479" type="line"/>
      <point x="241" y="740" type="line"/>
      <point x="12" y="740" type="line"/>
      <point x="282" y="298" type="line"/>
    </contour>
    <contour>
      <point x="127" y="137" type="line"/>
      <point x="637" y="137" type="line"/>
      <point x="637" y="270" type="line"/>
      <point x="127" y="270" type="line"/>
    </contour>
  </outline>
</glyph>
<glyph name="hadescendercyrillic" format="2">
  <advance height="1000" width="611"/>
  <unicode hex="04B3"/>
  <outline>
    <contour>
      <point x="12" y="0" type="line"/>
      <point x="217" y="0" type="line"/>
      <point x="297" y="133" type="line"/>
      <point x="376" y="0" type="line"/>
      <point x="598" y="0" type="line"/>
      <point x="411" y="275" type="line"/>
      <point x="586" y="536" type="line"/>
      <point x="385" y="536" type="line"/>
      <point x="310" y="408" type="line"/>
      <point x="235" y="536" type="line"/>
      <point x="19" y="536" type="line"/>
      <point x="196" y="271" type="line"/>
    </contour>
    <contour>
      <point x="407" y="160" type="line"/>
      <point x="407" y="0" type="line"/>
      <point x="420" y="0" type="line"/>
      <point x="420" y="-118" type="line"/>
      <point x="606" y="-118" type="line"/>
      <point x="606" y="160" type="line"/>
    </contour>
  </outline>
</glyph>
<glyph name="Chedescendercyrillic" format="2">
  <advance height="1000" width="824"/>
  <unicode hex="04B6"/>
  <outline>
    <contour>
      <point x="604" y="0" type="line"/>
      <point x="604" y="-133" type="line"/>
      <point x="792" y="-133" type="line"/>
      <point x="792" y="180" type="line"/>
      <point x="682" y="180" type="line"/>
      <point x="682" y="740" type="line"/>
      <point x="482" y="740" type="line"/>
      <point x="482" y="412" type="line"/>
      <point x="462" y="402"/>
      <point x="412" y="392"/>
      <point x="366" y="392" type="curve" smooth="yes"/>
      <point x="277" y="392"/>
      <point x="248" y="416"/>
      <point x="248" y="492" type="curve" smooth="yes"/>
      <point x="248" y="740" type="line"/>
      <point x="48" y="740" type="line"/>
      <point x="48" y="468" type="line" smooth="yes"/>
      <point x="48" y="290"/>
      <point x="137" y="215"/>
      <point x="314" y="215" type="curve" smooth="yes"/>
      <point x="376" y="215"/>
      <point x="440" y="225"/>
      <point x="482" y="241" type="curve"/>
      <point x="482" y="0" type="line"/>
    </contour>
  </outline>
</glyph>
<glyph name="quotesinglbase" format="2">
  <advance height="1000" width="308"/>
  <unicode hex="201A"/>
  <outline>
    <contour>
      <point x="151.0" y="-185.0" type="line"/>
      <point x="200.0" y="-138.0"/>
      <point x="252.0" y="-48.0"/>
      <point x="252.0" y="92.0" type="curve" smooth="yes"/>
      <point x="252.0" y="203.0" type="line"/>
      <point x="72.0" y="203.0" type="line"/>
      <point x="72.0" y="86.0" type="line" smooth="yes"/>
      <point x="72.0" y="-17.0"/>
      <point x="52.0" y="-76.0"/>
      <point x="16.0" y="-148.0" type="curve"/>
    </contour>
  </outline>
</glyph>
<glyph name="quotedblright" format="2">
  <advance height="1000" width="560"/>
  <unicode hex="201D"/>
  <outline>
    <contour>
      <point x="143" y="371" type="line"/>
      <point x="192" y="418"/>
      <point x="244" y="509"/>
      <point x="244" y="648" type="curve" smooth="yes"/>
      <point x="244" y="759" type="line"/>
      <point x="64" y="759" type="line"/>
      <point x="64" y="642" type="line" smooth="yes"/>
      <point x="64" y="540"/>
      <point x="44" y="481"/>
      <point x="8" y="408" type="curve"/>
    </contour>
    <contour>
      <point x="395" y="371" type="line"/>
      <point x="444" y="418"/>
      <point x="496" y="509"/>
      <point x="496" y="648" type="curve" smooth="yes"/>
      <point x="496" y="759" type="line"/>
      <point x="316" y="759" type="line"/>
      <point x="316" y="642" type="line" smooth="yes"/>
      <point x="316" y="540"/>
      <point x="296" y="481"/>
      <point x="260" y="408" type="curve"/>
    </contour>
  </outline>
</glyph>
<glyph name="uni2463" format="2">
  <advance height="1000" width="1000"/>
  <unicode hex="2463"/>
  <outline>
    <contour>
      <point x="481" y="158" type="line"/>
      <point x="613" y="158" type="line"/>
      <point x="613" y="229" type="line"/>
      <point x="664" y="229" type="line"/>
      <point x="664" y="333" type="line"/>
      <point x="613" y="333" type="line"/>
      <point x="613" y="565" type="line"/>
      <point x="435" y="565" type="line"/>
      <point x="306" y="333" type="line"/>
      <point x="306" y="230" type="line"/>
      <point x="481" y="230" type="line"/>
    </contour>
    <contour>
      <point x="481" y="333" type="line"/>
      <point x="409" y="333" type="line"/>
      <point x="481" y="463" type="line"/>
    </contour>
    <contour>
      <point x="980" y="350" type="curve" smooth="yes"/>
      <point x="980" y="638"/>
      <point x="759" y="830"/>
      <point x="500" y="830" type="curve" smooth="yes"/>
      <point x="241" y="830"/>
      <point x="20" y="638"/>
      <point x="20" y="350" type="curve" smooth="yes"/>
      <point x="20" y="62"/>
      <point x="241" y="-130"/>
      <point x="500" y="-130" type="curve" smooth="yes"/>
      <point x="759" y="-130"/>
      <point x="980" y="62"/>
    </contour>
    <contour>
      <point x="888" y="350" type="curve" smooth="yes"/>
      <point x="888" y="140"/>
      <point x="733" y="-38"/>
      <point x="500" y="-38" type="curve" smooth="yes"/>
      <point x="267" y="-38"/>
      <point x="112" y="140"/>
      <point x="112" y="350" type="curve" smooth="yes"/>
      <point x="112" y="560"/>
      <point x="267" y="738"/>
      <point x="500" y="738" type="curve" smooth="yes"/>
      <point x="733" y="738"/>
      <point x="888" y="560"/>
    </contour>
  </outline>
</glyph>
<glyph name="uni2464" format="2">
  <advance height="1000" width="1000"/>
  <unicode hex="2464"/>
  <outline>
    <contour>
      <point x="491" y="150" type="curve" smooth="yes"/>
      <point x="600" y="150"/>
      <point x="661" y="205"/>
      <point x="661" y="287" type="curve" smooth="yes"/>
      <point x="661" y="367"/>
      <point x="610" y="410"/>
      <point x="504" y="410" type="curve" smooth="yes"/>
      <point x="495" y="410"/>
      <point x="478" y="409"/>
      <point x="463" y="406" type="curve"/>
      <point x="465" y="448" type="line"/>
      <point x="639" y="448" type="line"/>
      <point x="639" y="565" type="line"/>
      <point x="362" y="565" type="line"/>
      <point x="349" y="306" type="line"/>
      <point x="384" y="312"/>
      <point x="425" y="318"/>
      <point x="461" y="318" type="curve" smooth="yes"/>
      <point x="493" y="318"/>
      <point x="511" y="309"/>
      <point x="511" y="289" type="curve" smooth="yes"/>
      <point x="511" y="269"/>
      <point x="497" y="258"/>
      <point x="467" y="258" type="curve" smooth="yes"/>
      <point x="424" y="258"/>
      <point x="388" y="265"/>
      <point x="349" y="283" type="curve"/>
      <point x="349" y="171" type="line"/>
      <point x="400" y="157"/>
      <point x="445" y="150"/>
    </contour>
    <contour>
      <point x="980" y="350" type="curve" smooth="yes"/>
      <point x="980" y="638"/>
      <point x="759" y="830"/>
      <point x="500" y="830" type="curve" smooth="yes"/>
      <point x="241" y="830"/>
      <point x="20" y="638"/>
      <point x="20" y="350" type="curve" smooth="yes"/>
      <point x="20" y="62"/>
      <point x="241" y="-130"/>
      <point x="500" y="-130" type="curve" smooth="yes"/>
      <point x="759" y="-130"/>
      <point x="980" y="62"/>
    </contour>
    <contour>
      <point x="888" y="350" type="curve" smooth="yes"/>
      <point x="888" y="140"/>
      <point x="733" y="-38"/>
      <point x="500" y="-38" type="curve" smooth="yes"/>
      <point x="267" y="-38"/>
      <point x="112" y="140"/>
      <point x="112" y="350" type="curve" smooth="yes"/>
      <point x="112" y="560"/>
      <point x="267" y="738"/>
      <point x="500" y="738" type="curve" smooth="yes"/>
      <point x="733" y="738"/>
      <point x="888" y="560"/>
    </contour>
  </outline>
</glyph>
<glyph name="uni2476" format="2">
  <advance height="1000" width="1000"/>
  <unicode hex="2476"/>
  <outline>
    <contour>
      <point x="508" y="62.0" type="curve" smooth="yes"/>
      <point x="614" y="62"/>
      <point x="671" y="109"/>
      <point x="671" y="180" type="curve" smooth="yes"/>
      <point x="671" y="227"/>
      <point x="638" y="266"/>
      <point x="577" y="277" type="curve"/>
      <point x="632" y="289"/>
      <point x="663" y="327"/>
      <point x="663" y="378" type="curve" smooth="yes"/>
      <point x="663" y="442"/>
      <point x="607" y="485"/>
      <point x="506" y="485" type="curve" smooth="yes"/>
      <point x="458" y="485"/>
      <point x="414" y="478"/>
      <point x="367" y="467" type="curve"/>
      <point x="367" y="347" type="line"/>
      <point x="401" y="363"/>
      <point x="433" y="370"/>
      <point x="469" y="370" type="curve" smooth="yes"/>
      <point x="496" y="370"/>
      <point x="511" y="362"/>
      <point x="511" y="345" type="curve" smooth="yes"/>
      <point x="511" y="329"/>
      <point x="492" y="321"/>
      <point x="452" y="321" type="curve" smooth="yes"/>
      <point x="428" y="321" type="line"/>
      <point x="428" y="227" type="line"/>
      <point x="458" y="227" type="line" smooth="yes"/>
      <point x="499" y="227"/>
      <point x="520" y="219"/>
      <point x="520" y="201" type="curve" smooth="yes"/>
      <point x="520" y="185"/>
      <point x="504" y="178"/>
      <point x="474" y="178" type="curve" smooth="yes"/>
      <point x="433" y="178"/>
      <point x="397" y="186"/>
      <point x="358" y="204" type="curve"/>
      <point x="358" y="81" type="line"/>
      <point x="411" y="66"/>
      <point x="459" y="62"/>
    </contour>
    <contour>
      <point x="152.0" y="-190.0" type="curve"/>
      <point x="308.0" y="-190.0" type="line"/>
      <point x="212.0" y="-12.0"/>
      <point x="174.0" y="119.0"/>
      <point x="174.0" y="275.0" type="curve" smooth="yes"/>
      <point x="174.0" y="430.0"/>
      <point x="212.0" y="561.0"/>
      <point x="308.0" y="740.0" type="curve"/>
      <point x="152.0" y="740.0" type="line"/>
      <point x="73.0" y="597.0"/>
      <point x="33.0" y="439.0"/>
      <point x="33.0" y="275.0" type="curve" smooth="yes"/>
      <point x="33.0" y="114.0"/>
      <point x="73.0" y="-44.0"/>
    </contour>
    <contour>
      <point x="691.0" y="-190.0" type="curve"/>
      <point x="847.0" y="-190.0" type="line"/>
      <point x="926.0" y="-44.0"/>
      <point x="966.0" y="114.0"/>
      <point x="966.0" y="275.0" type="curve" smooth="yes"/>
      <point x="966.0" y="439.0"/>
      <point x="926.0" y="597.0"/>
      <point x="847.0" y="740.0" type="curve"/>
      <point x="691.0" y="740.0" type="line"/>
      <point x="787.0" y="561.0"/>
      <point x="825.0" y="430.0"/>
      <point x="825.0" y="275.0" type="curve" smooth="yes"/>
      <point x="825.0" y="119.0"/>
      <point x="787.0" y="-12.0"/>
    </contour>
  </outline>
</glyph>
<glyph name="uni2477" format="2">
  <advance height="1000" width="1000"/>
  <unicode hex="2477"/>
  <outline>
    <contour>
      <point x="489" y="70" type="line"/>
      <point x="624" y="70" type="line"/>
      <point x="624" y="141" type="line"/>
      <point x="672" y="141" type="line"/>
      <point x="672" y="245" type="line"/>
      <point x="624" y="245" type="line"/>
      <point x="624" y="477" type="line"/>
      <point x="443" y="477" type="line"/>
      <point x="314" y="245" type="line"/>
      <point x="314" y="142" type="line"/>
      <point x="489" y="142" type="line"/>
    </contour>
    <contour>
      <point x="489" y="245" type="line"/>
      <point x="417" y="245" type="line"/>
      <point x="489" y="375" type="line"/>
    </contour>
    <contour>
      <point x="152.0" y="-190.0" type="curve"/>
      <point x="308.0" y="-190.0" type="line"/>
      <point x="212.0" y="-12.0"/>
      <point x="174.0" y="119.0"/>
      <point x="174.0" y="275.0" type="curve" smooth="yes"/>
      <point x="174.0" y="430.0"/>
      <point x="212.0" y="561.0"/>
      <point x="308.0" y="740.0" type="curve"/>
      <point x="152.0" y="740.0" type="line"/>
      <point x="73.0" y="597.0"/>
      <point x="33.0" y="439.0"/>
      <point x="33.0" y="275.0" type="curve" smooth="yes"/>
      <point x="33.0" y="114.0"/>
      <point x="73.0" y="-44.0"/>
    </contour>
    <contour>
      <point x="691.0" y="-190.0" type="curve"/>
      <point x="847.0" y="-190.0" type="line"/>
      <point x="926.0" y="-44.0"/>
      <point x="966.0" y="114.0"/>
      <point x="966.0" y="275.0" type="curve" smooth="yes"/>
      <point x="966.0" y="439.0"/>
      <point x="926.0" y="597.0"/>
      <point x="847.0" y="740.0" type="curve"/>
      <point x="691.0" y="740.0" type="line"/>
      <point x="787.0" y="561.0"/>
      <point x="825.0" y="430.0"/>
      <point x="825.0" y="275.0" type="curve" smooth="yes"/>
      <point x="825.0" y="119.0"/>
      <point x="787.0" y="-12.0"/>
    </contour>
  </outline>
</glyph>
<glyph name="uni2479" format="2">
  <advance height="1000" width="1000"/>
  <unicode hex="2479"/>
  <outline>
    <contour>
      <point x="484" y="62" type="curve" smooth="yes"/>
      <point x="593" y="62"/>
      <point x="664" y="127"/>
      <point x="664" y="219" type="curve" smooth="yes"/>
      <point x="664" y="298"/>
      <point x="609" y="336"/>
      <point x="529" y="336" type="curve" smooth="yes"/>
      <point x="493" y="336"/>
      <point x="465" y="326"/>
      <point x="444" y="307" type="curve"/>
      <point x="454" y="353"/>
      <point x="481" y="376"/>
      <point x="528" y="376" type="curve" smooth="yes"/>
      <point x="562" y="376"/>
      <point x="601" y="369"/>
      <point x="639" y="357" type="curve"/>
      <point x="639" y="469" type="line"/>
      <point x="595" y="480"/>
      <point x="566" y="485"/>
      <point x="515" y="485" type="curve" smooth="yes"/>
      <point x="402" y="485"/>
      <point x="306" y="395"/>
      <point x="306" y="250" type="curve" smooth="yes"/>
      <point x="306" y="136"/>
      <point x="381" y="62"/>
    </contour>
    <contour>
      <point x="487" y="169" type="curve" smooth="yes"/>
      <point x="460" y="169"/>
      <point x="443" y="189"/>
      <point x="443" y="219" type="curve"/>
      <point x="450" y="239"/>
      <point x="467" y="251"/>
      <point x="488" y="251" type="curve" smooth="yes"/>
      <point x="512" y="251"/>
      <point x="529" y="235"/>
      <point x="529" y="213" type="curve" smooth="yes"/>
      <point x="529" y="186"/>
      <point x="514" y="169"/>
    </contour>
    <contour>
      <point x="152.0" y="-190.0" type="curve"/>
      <point x="308.0" y="-190.0" type="line"/>
      <point x="212.0" y="-12.0"/>
      <point x="174.0" y="119.0"/>
      <point x="174.0" y="275.0" type="curve" smooth="yes"/>
      <point x="174.0" y="430.0"/>
      <point x="212.0" y="561.0"/>
      <point x="308.0" y="740.0" type="curve"/>
      <point x="152.0" y="740.0" type="line"/>
      <point x="73.0" y="597.0"/>
      <point x="33.0" y="439.0"/>
      <point x="33.0" y="275.0" type="curve" smooth="yes"/>
      <point x="33.0" y="114.0"/>
      <point x="73.0" y="-44.0"/>
    </contour>
    <contour>
      <point x="691.0" y="-190.0" type="curve"/>
      <point x="847.0" y="-190.0" type="line"/>
      <point x="926.0" y="-44.0"/>
      <point x="966.0" y="114.0"/>
      <point x="966.0" y="275.0" type="curve" smooth="yes"/>
      <point x="966.0" y="439.0"/>
      <point x="926.0" y="597.0"/>
      <point x="847.0" y="740.0" type="curve"/>
      <point x="691.0" y="740.0" type="line"/>
      <point x="787.0" y="561.0"/>
      <point x="825.0" y="430.0"/>
      <point x="825.0" y="275.0" type="curve" smooth="yes"/>
      <point x="825.0" y="119.0"/>
      <point x="787.0" y="-12.0"/>
    </contour>
  </outline>
</glyph>
<glyph name="uni248A" format="2">
  <advance height="1000" width="1000"/>
  <unicode hex="248A"/>
  <outline>
    <contour>
      <point x="382.0" y="-13.0" type="curve" smooth="yes"/>
      <point x="541.0" y="-13.0"/>
      <point x="638.0" y="68.0"/>
      <point x="638.0" y="195.0" type="curve" smooth="yes"/>
      <point x="638.0" y="281.0"/>
      <point x="589.0" y="351.0"/>
      <point x="495.0" y="377.0" type="curve"/>
      <point x="587.0" y="405.0"/>
      <point x="626.0" y="478.0"/>
      <point x="626.0" y="565.0" type="curve" smooth="yes"/>
      <point x="626.0" y="681.0"/>
      <point x="531.0" y="761.0"/>
      <point x="369.0" y="761.0" type="curve" smooth="yes"/>
      <point x="298.0" y="761.0"/>
      <point x="225.0" y="746.0"/>
      <point x="161.0" y="719.0" type="curve"/>
      <point x="161.0" y="534.0" type="line"/>
      <point x="213.0" y="564.0"/>
      <point x="280.0" y="581.0"/>
      <point x="341.0" y="581.0" type="curve" smooth="yes"/>
      <point x="394.0" y="581.0"/>
      <point x="427.0" y="562.0"/>
      <point x="427.0" y="522.0" type="curve" smooth="yes"/>
      <point x="427.0" y="475.0"/>
      <point x="384.0" y="451.0"/>
      <point x="313.0" y="451.0" type="curve" smooth="yes"/>
      <point x="272.0" y="451.0" type="line"/>
      <point x="272.0" y="296.0" type="line"/>
      <point x="321.0" y="296.0" type="line" smooth="yes"/>
      <point x="393.0" y="296.0"/>
      <point x="439.0" y="274.0"/>
      <point x="439.0" y="230.0" type="curve" smooth="yes"/>
      <point x="439.0" y="187.0"/>
      <point x="402.0" y="167.0"/>
      <point x="344.0" y="167.0" type="curve" smooth="yes"/>
      <point x="276.0" y="167.0"/>
      <point x="201.0" y="187.0"/>
      <point x="144.0" y="223.0" type="curve"/>
      <point x="144.0" y="35.0" type="line"/>
      <point x="222.0" y="5.0"/>
      <point x="306.0" y="-13.0"/>
    </contour>
    <contour>
      <point x="702.0" y="0.0" type="line"/>
      <point x="882.0" y="0.0" type="line"/>
      <point x="882.0" y="180.0" type="line"/>
      <point x="702.0" y="180.0" type="line"/>
    </contour>
  </outline>
</glyph>
<glyph name="uni24B8" format="2">
  <advance height="1000" width="1000"/>
  <unicode hex="24B8"/>
  <outline>
    <contour>
      <point x="532" y="88.0" type="curve" smooth="yes"/>
      <point x="589" y="88.0"/>
      <point x="639" y="100.0"/>
      <point x="689" y="125.0" type="curve"/>
      <point x="689" y="260.0" type="line"/>
      <point x="645" y="230.0"/>
      <point x="601" y="220.0"/>
      <point x="550" y="220.0" type="curve" smooth="yes"/>
      <point x="469" y="220.0"/>
      <point x="419" y="264.0"/>
      <point x="419" y="351.0" type="curve" smooth="yes"/>
      <point x="419" y="437.0"/>
      <point x="469" y="481.0"/>
      <point x="550" y="481.0" type="curve" smooth="yes"/>
      <point x="598" y="481.0"/>
      <point x="641" y="470.0"/>
      <point x="684" y="443.0" type="curve"/>
      <point x="684" y="579.0" type="line"/>
      <point x="635" y="601.0"/>
      <point x="587" y="612.0"/>
      <point x="532" y="612.0" type="curve" smooth="yes"/>
      <point x="356" y="612.0"/>
      <point x="245" y="511.0"/>
      <point x="245" y="351.0" type="curve" smooth="yes"/>
      <point x="245" y="191.0"/>
      <point x="356" y="88.0"/>
    </contour>
    <contour>
      <point x="980" y="350" type="curve" smooth="yes"/>
      <point x="980" y="638"/>
      <point x="759" y="830"/>
      <point x="500" y="830" type="curve" smooth="yes"/>
      <point x="241" y="830"/>
      <point x="20" y="638"/>
      <point x="20" y="350" type="curve" smooth="yes"/>
      <point x="20" y="62"/>
      <point x="241" y="-130"/>
      <point x="500" y="-130" type="curve" smooth="yes"/>
      <point x="759" y="-130"/>
      <point x="980" y="62"/>
    </contour>
    <contour>
      <point x="888" y="350" type="curve" smooth="yes"/>
      <point x="888" y="140"/>
      <point x="733" y="-38"/>
      <point x="500" y="-38" type="curve" smooth="yes"/>
      <point x="267" y="-38"/>
      <point x="112" y="140"/>
      <point x="112" y="350" type="curve" smooth="yes"/>
      <point x="112" y="560"/>
      <point x="267" y="738"/>
      <point x="500" y="738" type="curve" smooth="yes"/>
      <point x="733" y="738"/>
      <point x="888" y="560"/>
    </contour>
  </outline>
</glyph>
<glyph name="uni24B9" format="2">
  <advance height="1000" width="1000"/>
  <unicode hex="24B9"/>
  <outline>
    <contour>
      <point x="279" y="100" type="line"/>
      <point x="490" y="100.0" type="line" smooth="yes"/>
      <point x="674.0" y="100.0"/>
      <point x="774" y="199.0"/>
      <point x="774" y="356.0" type="curve" smooth="yes"/>
      <point x="774" y="506.0"/>
      <point x="673.0" y="600.0"/>
      <point x="493" y="600.0" type="curve" smooth="yes"/>
      <point x="279" y="600" type="line"/>
    </contour>
    <contour>
      <point x="449" y="221" type="line"/>
      <point x="449" y="479" type="line"/>
      <point x="476" y="479.0" type="line" smooth="yes"/>
      <point x="553" y="479"/>
      <point x="600" y="431.0"/>
      <point x="600" y="356.0" type="curve" smooth="yes"/>
      <point x="600" y="273.0"/>
      <point x="552" y="221"/>
      <point x="473.0" y="221.0" type="curve" smooth="yes"/>
    </contour>
    <contour>
      <point x="980" y="350" type="curve" smooth="yes"/>
      <point x="980" y="638"/>
      <point x="759" y="830"/>
      <point x="500" y="830" type="curve" smooth="yes"/>
      <point x="241" y="830"/>
      <point x="20" y="638"/>
      <point x="20" y="350" type="curve" smooth="yes"/>
      <point x="20" y="62"/>
      <point x="241" y="-130"/>
      <point x="500" y="-130" type="curve" smooth="yes"/>
      <point x="759" y="-130"/>
      <point x="980" y="62"/>
    </contour>
    <contour>
      <point x="888" y="350" type="curve" smooth="yes"/>
      <point x="888" y="140"/>
      <point x="733" y="-38"/>
      <point x="500" y="-38" type="curve" smooth="yes"/>
      <point x="267" y="-38"/>
      <point x="112" y="140"/>
      <point x="112" y="350" type="curve" smooth="yes"/>
      <point x="112" y="560"/>
      <point x="267" y="738"/>
      <point x="500" y="738" type="curve" smooth="yes"/>
      <point x="733" y="738"/>
      <point x="888" y="560"/>
    </contour>
  </outline>
</glyph>
<glyph name="uni2776" format="2">
  <advance height="1000" width="1000"/>
  <unicode hex="2776"/>
  <outline>
    <contour>
      <point x="370" y="158" type="line"/>
      <point x="370" y="273" type="line"/>
      <point x="444" y="273" type="line"/>
      <point x="444" y="440" type="line"/>
      <point x="366" y="435" type="line"/>
      <point x="366" y="549" type="line"/>
      <point x="592" y="571" type="line"/>
      <point x="592" y="273" type="line"/>
      <point x="664" y="273" type="line"/>
      <point x="664" y="158" type="line"/>
    </contour>
    <contour>
      <point x="988" y="360" type="curve" smooth="yes"/>
      <point x="988" y="653"/>
      <point x="764" y="848"/>
      <point x="500" y="848" type="curve" smooth="yes"/>
      <point x="236" y="848"/>
      <point x="12" y="653"/>
      <point x="12" y="360" type="curve" smooth="yes"/>
      <point x="12" y="67"/>
      <point x="236" y="-128"/>
      <point x="500" y="-128" type="curve" smooth="yes"/>
      <point x="764" y="-128"/>
      <point x="988" y="67"/>
    </contour>
  </outline>
</glyph>
<glyph name="uni2777" format="2">
  <advance height="1000" width="1000"/>
  <unicode hex="2777"/>
  <outline>
    <contour>
      <point x="353" y="158" type="line"/>
      <point x="353" y="301" type="line"/>
      <point x="473" y="337"/>
      <point x="521" y="374"/>
      <point x="521" y="410" type="curve" smooth="yes"/>
      <point x="521" y="440"/>
      <point x="498" y="454"/>
      <point x="462" y="454" type="curve" smooth="yes"/>
      <point x="427" y="454"/>
      <point x="392" y="444"/>
      <point x="359" y="422" type="curve"/>
      <point x="359" y="549" type="line"/>
      <point x="407" y="565"/>
      <point x="450" y="573"/>
      <point x="503" y="573" type="curve" smooth="yes"/>
      <point x="608" y="573"/>
      <point x="666" y="519"/>
      <point x="666" y="440" type="curve" smooth="yes"/>
      <point x="666" y="363"/>
      <point x="616" y="310"/>
      <point x="504" y="275" type="curve"/>
      <point x="665" y="275" type="line"/>
      <point x="665" y="158" type="line"/>
    </contour>
    <contour>
      <point x="988" y="360" type="curve" smooth="yes"/>
      <point x="988" y="653"/>
      <point x="764" y="848"/>
      <point x="500" y="848" type="curve" smooth="yes"/>
      <point x="236" y="848"/>
      <point x="12" y="653"/>
      <point x="12" y="360" type="curve" smooth="yes"/>
      <point x="12" y="67"/>
      <point x="236" y="-128"/>
      <point x="500" y="-128" type="curve" smooth="yes"/>
      <point x="764" y="-128"/>
      <point x="988" y="67"/>
    </contour>
  </outline>
</glyph>
<glyph name="uni2779" format="2">
  <advance height="1000" width="1000"/>
  <unicode hex="2779"/>
  <outline>
    <contour>
      <point x="481" y="158" type="line"/>
      <point x="481" y="230" type="line"/>
      <point x="306" y="230" type="line"/>
      <point x="306" y="333" type="line"/>
      <point x="435" y="565" type="line"/>
      <point x="613" y="565" type="line"/>
      <point x="613" y="333" type="line"/>
      <point x="664" y="333" type="line"/>
      <point x="664" y="229" type="line"/>
      <point x="613" y="229" type="line"/>
      <point x="613" y="158" type="line"/>
    </contour>
    <contour>
      <point x="481" y="333" type="line"/>
      <point x="481" y="463" type="line"/>
      <point x="409" y="333" type="line"/>
    </contour>
    <contour>
      <point x="988" y="360" type="curve" smooth="yes"/>
      <point x="988" y="653"/>
      <point x="764" y="848"/>
      <point x="500" y="848" type="curve" smooth="yes"/>
      <point x="236" y="848"/>
      <point x="12" y="653"/>
      <point x="12" y="360" type="curve" smooth="yes"/>
      <point x="12" y="67"/>
      <point x="236" y="-128"/>
      <point x="500" y="-128" type="curve" smooth="yes"/>
      <point x="764" y="-128"/>
      <point x="988" y="67"/>
    </contour>
  </outline>
</glyph>
<glyph name="uni277A" format="2">
  <advance height="1000" width="1000"/>
  <unicode hex="277A"/>
  <outline>
    <contour>
      <point x="491" y="150" type="curve" smooth="yes"/>
      <point x="445" y="150"/>
      <point x="400" y="157"/>
      <point x="349" y="171" type="curve"/>
      <point x="349" y="283" type="line"/>
      <point x="388" y="265"/>
      <point x="424" y="258"/>
      <point x="467" y="258" type="curve" smooth="yes"/>
      <point x="497" y="258"/>
      <point x="511" y="269"/>
      <point x="511" y="289" type="curve" smooth="yes"/>
      <point x="511" y="309"/>
      <point x="493" y="318"/>
      <point x="461" y="318" type="curve" smooth="yes"/>
      <point x="425" y="318"/>
      <point x="384" y="312"/>
      <point x="349" y="306" type="curve"/>
      <point x="362" y="565" type="line"/>
      <point x="639" y="565" type="line"/>
      <point x="639" y="448" type="line"/>
      <point x="465" y="448" type="line"/>
      <point x="463" y="406" type="line"/>
      <point x="478" y="409"/>
      <point x="495" y="410"/>
      <point x="504" y="410" type="curve" smooth="yes"/>
      <point x="610" y="410"/>
      <point x="661" y="367"/>
      <point x="661" y="287" type="curve" smooth="yes"/>
      <point x="661" y="205"/>
      <point x="600" y="150"/>
    </contour>
    <contour>
      <point x="988" y="360" type="curve" smooth="yes"/>
      <point x="988" y="653"/>
      <point x="764" y="848"/>
      <point x="500" y="848" type="curve" smooth="yes"/>
      <point x="236" y="848"/>
      <point x="12" y="653"/>
      <point x="12" y="360" type="curve" smooth="yes"/>
      <point x="12" y="67"/>
      <point x="236" y="-128"/>
      <point x="500" y="-128" type="curve" smooth="yes"/>
      <point x="764" y="-128"/>
      <point x="988" y="67"/>
    </contour>
  </outline>
</glyph>
<glyph name="four.tab" format="2">
  <advance width="630"/>
  <outline>
    <contour>
      <point x="333.5" y="0.0" type="line"/>
      <point x="523.5" y="0.0" type="line"/>
      <point x="523.5" y="152.0" type="line"/>
      <point x="612.5" y="152.0" type="line"/>
      <point x="612.5" y="319.0" type="line"/>
      <point x="523.5" y="319.0" type="line"/>
      <point x="523.5" y="740.0" type="line"/>
      <point x="253.5" y="740.0" type="line"/>
      <point x="17.5" y="290.0" type="line"/>
      <point x="17.5" y="153.0" type="line"/>
      <point x="333.5" y="153.0" type="line"/>
    </contour>
    <contour>
      <point x="206.5" y="319.0" type="line"/>
      <point x="333.5" y="557.0" type="line"/>
      <point x="333.5" y="319.0" type="line"/>
    </contour>
  </outline>
</glyph>
